<svg fill="none" height="104" viewBox="0 0 178 104" width="178" xmlns="http://www.w3.org/2000/svg"><path d="m2.5 57.9308 79.5 45.5002 95.5-55.931-78.13-46.06921z" fill="#fff"/><path d="m82 103.5 8.5-5 87-51-80.63-47.5-96.87 56.5" fill="#f5f5f7"/><path d="m93.5603 65.5399 16.6897 10.42 5.07-3.22-16.1197-10.43z" fill="#fff"/><path d="m114.76 72.46 53.31-30.45 5.49 3.43-91.3698 53.1-77.24-44.19 6.44-3.8 70.42 40.74 27.7298-15.84" fill="#fff"/><path d="m99.3603 62.66 7.0097-4.07-6.3-3.67 17.44-10.33-24.9197-14.5-36.06 20.81 32.1 18.02 4.1-2.43 1.25-.74" fill="#fff"/><path d="m69.0302 30.6899-.06 8.5101-21.02 12.1299-.02-8.46z" fill="#fffbf8" stroke="#002484" stroke-linejoin="round" stroke-width=".25"/><path d="m47.9501 51.27-10.34-5.95-.02-8.46 10.34 6.01z" fill="#cdd8f2" stroke="#00208a" stroke-linejoin="round" stroke-width=".25"/><path d="m47.9301 42.87-10.34-6.01 21.26-12.27 10.18 6.1z" fill="#d0d8f1" stroke="#002484" stroke-linejoin="round" stroke-width=".25"/><path d="m56.1501 40.39 2-1.16.11 3.48-2.12 1.2v-3.53z" fill="#d0d8f1" stroke="#002484" stroke-linejoin="round" stroke-width=".2"/><path d="m59.0601 38.62 2-1.16.1099 3.48-2.12 1.2v-3.53z" fill="#d0d8f1" stroke="#002484" stroke-linejoin="round" stroke-width=".2"/><path d="m61.9302 36.91 2-1.16.11 3.48-2.12 1.2v-3.53z" fill="#d0d8f1" stroke="#002484" stroke-linejoin="round" stroke-width=".2"/><path d="m64.78 35.27 2-1.16.11 3.48-2.12 1.2v-3.53z" fill="#d0d8f1" stroke="#002484" stroke-linejoin="round" stroke-width=".2"/><path d="m53.9902 41.87-2.52 1.46.01 5.93 2.51-1.53z" fill="#00208a"/><path d="m83.76 44.67c-.1.02-.25-.09-.25-.09v.2l.12.05s.07.08.16.13c.1.05.26.14.26.1 0-.02-.03-.04-.06-.06.06.01.14.04.13 0 0-.03-.08-.07-.13-.1.06 0 .14.02.13-.01-.02-.05-.21-.1-.21-.1s-.04-.02-.06-.04c.03-.02.1-.09.04-.1-.04-.01-.09.01-.12.02z" fill="#063abe"/><path d="m82.01 42s.26.05.39.25.27 1.34.44 1.58c.25.37.76.77.76.77l-.08.31c-.68-.49-.83-.64-1.03-.87s-.47-2.04-.47-2.04z" fill="#04005a"/><path d="m81.1502 44.8101.02 2.39-.48.87c0 .11.08.21.17.24l.24.07.65-.95.14-1.78.31 1.6499.27 1.67c0 .12.08.2401.19.2701l.22.08-.17-1.9601-.18-2.4299s-.19.21-.49.17-.87-.3001-.87-.3001z" fill="#04005a"/><path d="m82.42 43.06c-.01.34.0501.64.0501.64.01.66.0399 1.2299.0399 1.2299s-.03.32-.59.39c-.61.08-.8199-.53-.8199-.53s-.0201-.49.0499-1.22l-.0199-.8699s-.02-.1201.06-.3201.4599-.36.4599-.36h.06l.21-.08" fill="#04005a"/><path d="m81.65 41.8s.03.1701 0 .2701.1399.2499.2999.2899.1401-.07.1501-.2-.44-.36-.44-.36z" fill="#063abe"/><path d="m81.8401 42.09s.15.1699.24.1399c.16-.05.21-.45.14-.71s-.54-.33-.54-.33l-.06.59" fill="#063abe"/><path d="m81.69 41.6.04.13.05.04v-.29s.06.12.22.2c.2.1.34-.04.34-.04s.01-.18-.18-.35c-.12-.1-.28-.28-.45-.23s-.11.15-.11.15-.16.03-.04.43c.06.18.12.27.12.27v-.26l.02-.04z" fill="#04005a"/><path d="m80.6801 45.35c-.05-.13-.01-.34-.01-.34l-.15.02v.14s-.05.09-.05.22-.02.35 0 .34c.01 0 .02-.04.03-.08 0 .08.0099.18.0399.17.02-.01.0301-.1.0301-.18.02.07.03.19.05.17.03-.02 0-.28 0-.28s0-.05.01-.08c.03.04.1.12.09.05 0-.05-.04-.12-.06-.16z" fill="#063abe"/><path d="m81.5601 42.14c-.32 0-.62.51-.86 1.02-.26.57-.24 1.92-.24 1.92l.25.05s.09-1.1.22-1.48c.09-.28.25-.51.25-.51" fill="#04005a"/><path d="m81.73 41.69-.02.07s-.03-.02-.04-.03c-.03-.03-.05-.1-.04-.15s.04-.06.07-.03.04.09.03.14z" fill="#063abe"/><path d="m82.68 48.98s.14.2.25.24c.4.14.35.2.38.25.05.1-.17.18-.28.17-.35-.06-.29-.07-.35-.08s-.12 0-.15-.11-.07-.37-.07-.37.07.06.15.01.07-.11.07-.11z" fill="#04005a"/><path d="m81.14 48.16s-.04.24 0 .41c.18.61.1.55.08.6-.04.09-.25-.22-.32-.38-.2-.52-.16-.44-.19-.53s-.08-.17-.02-.23.22-.16.22-.16 0 .12.1.22.12.08.12.08z" fill="#04005a"/><path d="m81.43 41.45s.0901.03.2601.05.1899.08.3599.08.37-.04.41-.1-.0999-.1-.1099-.12-.0001-.06-.0401-.12.05-.14-.14-.29-.33-.11-.46-.08c0 0-.11.08-.13.09-.08.05-.13.15-.13.21v.07s-.0599.04-.0399.14c0 0-.0301.06.0199.07z" fill="#000056" stroke="#04005a" stroke-miterlimit="10" stroke-width=".04"/><path d="m81.4901 41.23s.09.04.22.05.08.07.08.12-.1.03-.18.02-.18-.05-.18-.05-.02-.1.05-.14z" fill="#000056" stroke="#04005a" stroke-miterlimit="10" stroke-width=".04"/><path d="m81.6501 40.91s.2701 0 .3501.08c0 0 .2299.07.1699-.05" fill="#000056"/><path d="m81.6501 40.91s.2701 0 .3501.08c0 0 .2299.07.1699-.05" stroke="#04005a" stroke-miterlimit="10" stroke-width=".04"/><path d="m82.3601 41.3501s-.11.13-.48.08z" fill="#000056"/><path d="m82.3601 41.3501s-.11.13-.48.08" stroke="#04005a" stroke-miterlimit="10" stroke-width=".04"/><path d="m80.5 14.78-.04 14.64 47.39 27.36.04-14.64z" fill="#fffbf8" stroke="#002484" stroke-linejoin="round" stroke-width=".23"/><path d="m127.85 56.68 17.89-10.3.05-14.63-17.9 10.39z" fill="#123eb7" stroke="#002484" stroke-linejoin="round" stroke-width=".23"/><path d="m127.89 42.14 17.9-10.39-47.3901-27.35999-17.74 10.37999z" fill="#d0d8f1" stroke="#002484" stroke-linejoin="round" stroke-width=".23"/><path d="m80.46 17.42 47.43 27.47" stroke="#002484" stroke-linejoin="round" stroke-width=".23"/><path d="m80.46 20.5 47.43 27.47" stroke="#002484" stroke-linejoin="round" stroke-width=".23"/><path d="m80.46 23.5701 47.43 27.48" stroke="#002484" stroke-linejoin="round" stroke-width=".23"/><path d="m80.46 26.65 47.43 27.48" stroke="#002484" stroke-linejoin="round" stroke-width=".23"/><path d="m127.89 44.89 17.9-10.1" stroke="#002484" stroke-linejoin="round" stroke-width=".23"/><path d="m127.89 47.88 17.9-10.11" stroke="#002484" stroke-linejoin="round" stroke-width=".23"/><path d="m127.89 50.86 17.9-10.11" stroke="#002484" stroke-linejoin="round" stroke-width=".23"/><path d="m127.87 53.84 17.89-10.1" stroke="#002484" stroke-linejoin="round" stroke-width=".23"/><path d="m92.15 32.13s-.63 1.09-.3 2.17c.2.64 1.29 1.8 1.59 1.36 1.26-1.85 2.84-1.47 2.84-1.47" fill="#d0d8f1"/><path d="m92.15 32.13s-.63 1.09-.3 2.17c.2.64 1.29 1.8 1.59 1.36 1.26-1.85 2.84-1.47 2.84-1.47" stroke="#002484" stroke-miterlimit="10" stroke-width=".23"/><path d="m94.1299 30.54s-2.69.41-2.21 1.33 5.97 3.31 5.93 2.32" fill="#d0d8f1"/><path d="m94.1299 30.54s-2.69.41-2.21 1.33 5.97 3.31 5.93 2.32" stroke="#002484" stroke-miterlimit="10" stroke-width=".23"/><path d="m100.83 34.05s1.36-.29 2.5.21 2.83 1.91 2.95 1.17c.22-1.46-2.94-3.55-2.94-3.55" fill="#d0d8f1"/><path d="m100.83 34.05s1.36-.29 2.5.21 2.83 1.91 2.95 1.17c.22-1.46-2.94-3.55-2.94-3.55" stroke="#002484" stroke-miterlimit="10" stroke-width=".23"/><path d="m100.06 34.11s1.51.11 2.41-1.18c.9-1.28 1.41-1.12.36-1.83-1.06-.71-2.43-.83-3.2399-.74" fill="#d0d8f1"/><path d="m100.06 34.11s1.51.11 2.41-1.18c.9-1.28 1.41-1.12.36-1.83-1.06-.71-2.43-.83-3.2399-.74" stroke="#002484" stroke-miterlimit="10" stroke-width=".23"/><path d="m99.53 30.25c-.36-.47-1.56-1.02-3.42-.85-1.85.18-2.2.78-2.05 1.04s3.4 4.37 5.2 4.21c1.81-.15.63-3.93.26-4.4z" fill="#d0d8f1" stroke="#002484" stroke-miterlimit="10" stroke-width=".23"/><path d="m82.6099 25.1801 2.32 1.34-.01 5.43-2.31-1.39z" fill="#00208a"/><path d="m124.69 36.74 3.15-1.83 3.18 1.84v1.13l-3.16 1.83-3.17-1.84z" fill="#002484"/><path d="m127.85 34.92 3.17 1.83v1.13l-3.16 1.83h-.01z" fill="#718bd4" stroke="#002484" stroke-linejoin="round" stroke-width=".23"/><path d="m124.91 36.7401 2.93-1.6901 2.95 1.7001-2.93 1.7z" fill="#d0d8f1"/><path d="m127.84 35.18 2.72 1.57-2.7 1.56-2.72-1.57zm0-.27-3.16 1.83 3.18 1.84 3.16-1.83z" fill="#123eb7"/><path d="m126.71 36.09c-.63.36-.62.9501 0 1.3101s1.65.37 2.27 0 .62-.9501 0-1.3101-1.65-.37-2.27 0z" fill="#002484"/><path d="m84.5 14.17 3.16-1.83 3.17 1.84v1.13l-3.15 1.83-3.18-1.84z" fill="#002484"/><path d="m87.6699 12.35 3.16 1.83v1.13l-3.15 1.83-.01-.01z" fill="#718bd4" stroke="#002484" stroke-linejoin="round" stroke-width=".23"/><path d="m84.73 14.17 2.93-1.7 2.94 1.71-2.92 1.69z" fill="#d0d8f1"/><path d="m87.66 12.6 2.72 1.57-2.7 1.56-2.72-1.57zm0-.26-3.16 1.83 3.18 1.84 3.16-1.83z" fill="#123eb7"/><path d="m86.53 13.51c-.63.36-.62.95 0 1.31s1.65.37 2.27 0 .62-.95 0-1.31-1.65-.37-2.27 0z" fill="#002484"/><path d="m136.36 30.36 3.16-1.83 3.18 1.84v1.13l-3.16 1.83-3.18-1.84z" fill="#002484"/><path d="m139.53 28.54 3.17 1.83v1.13l-3.16 1.83-.01-.01z" fill="#718bd4" stroke="#002484" stroke-linejoin="round" stroke-width=".23"/><path d="m136.59 30.36 2.93-1.69 2.95 1.7-2.93 1.7z" fill="#d0d8f1"/><path d="m139.52 28.8 2.72 1.57-2.7 1.56-2.72-1.57zm0-.27-3.16 1.83 3.18 1.84 3.16-1.83z" fill="#123eb7"/><path d="m138.39 29.71c-.63.36-.62.95 0 1.31s1.65.37 2.27 0 .62-.95 0-1.31-1.65-.37-2.27 0z" fill="#002484"/><path d="m109.47 42.76c-1.57-.67-3.06-2.52-4.73-4.33-1.64-1.79-3.39-4.21-3.27-5.85.05-.61 1.63-1.32 4.17-.26 1.68.7 2.99 1.81 4.56 3.52 1.56 1.7 2.21 3.13 2.38 4.23.03.19.11 1.56-.62 2.2-.73.65-2.26.59-2.49.49z" fill="#d0d8f1" stroke="#002484" stroke-miterlimit="10" stroke-width=".23"/><path d="m112.49 39.91s-1.46-1.78-4.2-1.79c-1.89.02-.03-.43-.03-.43s2-.56 4.2 1.42" stroke="#002484" stroke-miterlimit="10" stroke-width=".23"/><path d="m111.77 37.9s-1.07-1.78-4.85-1.81c-2.67.02 2.12-1.36 4.25.81" stroke="#002484" stroke-miterlimit="10" stroke-width=".23"/><path d="m109.04 34.73c-2.4-2.13-5.6-.35-3.48-.55 2.74-.21 4.65 1.66 4.65 1.66" stroke="#002484" stroke-miterlimit="10" stroke-width=".23"/><path d="m30.4701 59.5599c-.08.02-.4901-.17-1.0801-.49-2.33-1.26-7.5799-4.51-7.5799-4.51l15.1999-8.63 8.44 4.99z" fill="#fff"/><path d="m33.9 50.51s-.04.06-.11.11c-.12.1-.29.22-.48.16-.1-.03-.56-1.12-.56-1.12s.09-.18.43-.27c.37-.09.57.27.69.48.16.31.02.63.02.63z" fill="#002484"/><path d="m33.66 50.45c0 .19-.09.32-.22.34-.08.01-.17 0-.27-.06-.27-.15-.49-.53-.48-.84 0-.31.22-.43.49-.28s.49.53.48.84z" fill="#123eb7" stroke="#002484" stroke-linejoin="round" stroke-width=".19"/><path d="m33.1501 50.56c-.17-.1-.32-.35-.32-.55 0-.15.08-.24.2-.24.05 0 .1.02.15.05.17.1.32.35.32.55 0 .15-.08.24-.2.24-.05 0-.1-.02-.15-.05z" fill="#f6f6f6" stroke="#002484" stroke-linejoin="round" stroke-width=".19"/><path d="m33.15 50.43c-.1-.06-.19-.21-.19-.33 0-.09.04-.14.11-.14.03 0 .06 0 .09.03.1.06.19.21.19.33 0 .09-.04.14-.11.14-.03 0-.06 0-.09-.03z" fill="#718bd4" stroke="#002484" stroke-linejoin="round" stroke-width=".19"/><path d="m37.4401 52.62s-.0401.06-.1101.11c-.12.1-.2899.22-.4799.16-.1-.03-.5601-1.12-.5601-1.12s.0901-.18.4301-.27c.37-.09.57.27.69.48.16.31.02.63.02.63z" fill="#002484"/><path d="m37.2101 52.56c0 .19-.09.32-.22.34-.08.01-.17 0-.27-.06-.27-.15-.49-.53-.48-.84 0-.31.22-.43.49-.28s.49.53.48.84z" fill="#123eb7" stroke="#002484" stroke-linejoin="round" stroke-width=".19"/><path d="m36.7001 52.66c-.17-.1-.32-.35-.32-.55 0-.15.08-.24.2-.24.05 0 .1.02.15.05.17.1.32.35.32.55 0 .15-.08.24-.2.24-.05 0-.1-.02-.15-.05z" fill="#f6f6f6" stroke="#002484" stroke-linejoin="round" stroke-width=".19"/><path d="m36.7 52.53c-.1-.06-.19-.2099-.19-.3299 0-.09.04-.14.11-.14.03 0 .06 0 .09.03.1.06.19.2099.19.3299 0 .09-.04.1401-.11.1401-.03 0-.06-.0001-.09-.0301z" fill="#718bd4" stroke="#002484" stroke-linejoin="round" stroke-width=".19"/><path d="m38.7801 53.31c-.16.19-.38-.02-.56-.1-.31-.18-.59-.34-.85-.5 0-.04-.01-.08-.02-.12-.06-.4-.39-.85-.73-1.01-.1-.05-.27-.07-.44-.04-.13.02-.24.14-.32.26-.27-.16-.54-.31-.84-.48-.11-.07-.7-.43-1.28-.8-.01-.06-.03-.15-.06-.29-.1-.5-.37-.62-.58-.69-.09-.03-.22-.03-.36.01-.08.03-.16.08-.22.14-.03-.03-.05-.05-.06-.06-.08-.07-.13-.33-.13-.33v-.26l.07-.72.47-.43s1.09.22 1.27.31c1.11.53 2.12 1.52 2.79 2.57.56.66 1.75.98 1.86 1.93.12.25 0 .37-.01.6z" style="fill-rule:evenodd;clip-rule:evenodd;fill:#fcfcff;stroke:#002484;stroke-width:.19;stroke-linejoin:round"/><path clip-rule="evenodd" d="m32.6201 48.82c-.04.06-.1.07-.19.03-.01 0-.02-.01-.03-.02-.03-.02-.04-.03-.04-.07 0-.06.02-.13.01-.21 0-.02 0-.05 0-.08 0-.02 0-.03.02-.02 0 0 .01 0 .02.02.07.07.13.14.19.22.04.06.05.11.02.15" fill="#002484" fill-rule="evenodd"/><path d="m32.8701 47.9 2.43-1.41c.22.02.44.12.66.2 1.04.43 2.54 1.57 2.54 1.57s.74.88 1.06 1.33c.57.5 1.57.89 1.65 1.72l-.08.35-2.41 1.68.05-.61c-.08-.83-1.09-1.23-1.65-1.72-.43-.4-.72-.97-1.13-1.39-.93-.73-1.99-1.43-3.13-1.71z" style="fill-rule:evenodd;clip-rule:evenodd;fill:#a0b2e2;stroke:#002484;stroke-width:.19;stroke-linejoin:round"/><path d="m38.4 48.41s-.54.3-.92.51l-1.22.73c.06.09.13.18.19.27.17.23.33.46.48.69.08.12.17.22.27.28.02 0 .04.02.05.03.01 0 .02.01.03.02.02.01.04.02.06.03 0 0 .9-.4 1.2-.62.31-.23.78-.79.78-.79l-.92-1.17z" fill="#002484"/><path d="m36.4001 50.41c-.17-.23-.32-.44-.5-.63-.24-.19-.47-.36-.7-.52l-.59.76h-.02l1.97 1.14v-.14c.04-.22-.02-.44-.15-.62z" fill="#002484"/><path d="m32.6401 48.8899 1.73 1 .61-.79c-.54-.36-1.04-.62-1.52-.8-.14-.05-.81.58-.81.58z" fill="#002484"/><path d="m41.1802 51.46.06-.19-.05-.16s-.15.07-.25.12c-.16.1-.27.19-.27.19l.03.08c.04.1.14.14.23.09l.25-.14z" fill="#002484"/><path d="m38.8 52.89v-.16-.18s.1301-.1.2301-.15c.16-.09.28-.13.28-.13l.04.07c.05.09.02.2-.07.25l-.47.3z" fill="#002484"/><path d="m27.3099 54.52s-.04.06-.11.11c-.12.1-.29.22-.48.16-.1-.03-.56-1.12-.56-1.12s.09-.18.43-.27c.37-.09.57.27.69.48.16.31.02.63.02.63z" fill="#002484"/><path d="m27.0699 54.46c0 .19-.09.32-.22.34-.08.01-.17 0-.27-.06-.27-.15-.49-.53-.48-.84 0-.31.22-.43.49-.28s.49.53.48.84z" fill="#123eb7" stroke="#002484" stroke-linejoin="round" stroke-width=".19"/><path d="m26.56 54.56c-.17-.1-.32-.35-.32-.55 0-.15.08-.24.2-.24.05 0 .1.02.15.05.17.1.32.35.32.55 0 .15-.08.24-.2.24-.05 0-.1-.02-.15-.05z" fill="#f6f6f6" stroke="#002484" stroke-linejoin="round" stroke-width=".19"/><path d="m26.5601 54.43c-.1-.06-.19-.21-.19-.33 0-.09.04-.14.11-.14.03 0 .06 0 .09.03.1.06.19.21.19.33 0 .09-.04.14-.11.14-.03 0-.06 0-.09-.03z" fill="#718bd4" stroke="#002484" stroke-linejoin="round" stroke-width=".19"/><path d="m30.85 56.62s-.04.06-.11.11c-.12.1-.2901.22-.4801.16-.1-.03-.5599-1.12-.5599-1.12s.09-.18.43-.27c.37-.09.57.27.69.48.16.31.02.63.02.63z" fill="#002484"/><path d="m30.62 56.56c0 .19-.09.32-.22.34-.08.01-.17 0-.27-.06-.27-.15-.49-.53-.48-.84 0-.31.22-.43.49-.28s.49.53.48.84z" fill="#123eb7" stroke="#002484" stroke-linejoin="round" stroke-width=".19"/><path d="m30.11 56.67c-.17-.1-.32-.35-.32-.55 0-.15.0801-.24.2001-.24.05 0 .0999.02.1499.05.17.1.3201.35.3201.55 0 .15-.0801.24-.2001.24-.05 0-.1-.02-.15-.05z" fill="#f6f6f6" stroke="#002484" stroke-linejoin="round" stroke-width=".19"/><path d="m30.1099 56.5401c-.1-.06-.19-.21-.19-.33 0-.09.04-.14.11-.14.03 0 .06 0 .09.03.1.06.19.21.19.33 0 .09-.04.14-.11.14-.03 0-.06 0-.09-.03z" fill="#718bd4" stroke="#002484" stroke-linejoin="round" stroke-width=".19"/><path d="m32.19 57.32c-.16.19-.38-.02-.56-.1-.31-.18-.59-.34-.85-.5 0-.04-.01-.08-.02-.12-.06-.4-.39-.85-.73-1.01-.1-.05-.27-.07-.44-.04-.13.02-.24.14-.32.26-.27-.16-.54-.31-.84-.48-.11-.07-.7-.43-1.28-.8-.01-.06-.03-.15-.06-.29-.1-.5-.37-.62-.58-.69-.09-.03-.22-.03-.36.01-.08.03-.16.08-.22.14-.03-.03-.05-.05-.06-.06-.08-.07-.13-.33-.13-.33v-.26l.07-.72.47-.43s1.09.22 1.27.31c1.11.53 2.12 1.52 2.79 2.57.56.66 1.75.98 1.86 1.93.12.25 0 .37-.01.6z" style="fill-rule:evenodd;clip-rule:evenodd;fill:#fcfcff;stroke:#002484;stroke-width:.19;stroke-linejoin:round"/><path clip-rule="evenodd" d="m26.03 52.82c-.04.06-.1.07-.19.03-.01 0-.02-.01-.03-.02-.03-.02-.04-.03-.04-.07 0-.06.02-.13.01-.21 0-.02 0-.05 0-.08 0-.02 0-.03.02-.02 0 0 .01 0 .02.02.07.07.13.14.19.22.04.06.05.11.02.15" fill="#002484" fill-rule="evenodd"/><path d="m26.28 51.91 2.43-1.41c.22.02.44.12.66.2 1.04.43 2.54 1.57 2.54 1.57s.74.88 1.06 1.33c.57.5 1.57.89 1.65 1.72l-.08.35-2.41 1.68.05-.61c-.08-.83-1.09-1.23-1.65-1.72-.43-.4-.72-.97-1.13-1.39-.93-.73-1.99-1.43-3.13-1.71z" style="fill-rule:evenodd;clip-rule:evenodd;fill:#a0b2e2;stroke:#002484;stroke-width:.19;stroke-linejoin:round"/><path d="m31.8099 52.41s-.54.3-.92.51l-1.22.73c.06.09.13.18.19.27.17.23.33.46.48.69.08.12.17.22.27.28.02 0 .04.02.05.03.01 0 .02.01.03.02l.06.03s.9-.4 1.2-.62c.31-.23.78-.79.78-.79l-.92-1.17z" fill="#002484"/><path d="m29.81 54.41c-.17-.23-.32-.44-.5-.63-.24-.19-.47-.36-.7-.52l-.59.76h-.02l1.97 1.14v-.14c.04-.22-.02-.44-.15-.62z" fill="#002484"/><path d="m26.05 52.8899 1.7301 1 .6099-.79c-.54-.36-1.0399-.62-1.5199-.8-.14-.05-.81.58-.81.58z" fill="#002484"/><path d="m34.6001 55.46.06-.19-.05-.16s-.15.07-.25.12c-.16.1-.27.19-.27.19l.03.08c.04.1.14.14.23.09l.25-.14z" fill="#002484"/><path d="m32.21 56.89v-.16-.18s.13-.1.23-.15c.16-.09.28-.13.28-.13l.0399.07c.05.09.0201.2-.0699.25l-.47.3z" fill="#002484"/><path d="m79.7901 88.63c-.08.02-.49-.17-1.08-.49-2.33-1.26-7.58-4.51-7.58-4.51l15.2-8.63 8.44 4.99z" fill="#fff"/><path d="m47.8802 70.3299c-.08.02-.49-.1699-1.08-.4899-2.33-1.26-7.58-4.5101-7.58-4.5101l15.2-8.6299 8.44 4.9899z" fill="#fff"/><path d="m58.8202 76.0799c-.08.02-.4901-.1699-1.0801-.4899-2.33-1.26-7.5799-4.5101-7.5799-4.5101l15.1999-8.6299 8.44 4.9899z" fill="#fff"/><path d="m65.2301 63.5699 8.14-4.54-6.25-3.5799-8.28 4.8799-.01.0101z" fill="#d0d8f1" stroke="#002484" stroke-linejoin="round" stroke-width=".2"/><path d="m58.8901 60.34-.01 6.84.06.02.56.32v-.06l5.74 3.17.04-7.11" fill="#002484"/><path d="m70.3401 67.7399s.09.12.24.25c.26.22.63.48 1.05.35.22-.07 1.23-2.49 1.23-2.49s-.21-.4-.95-.59c-.81-.21-1.18.64-1.18.64z" fill="#002484"/><path d="m71.9301 65.7499c.59-.34 1.08-.07 1.08.61s-.48 1.51-1.07 1.86c-.22.13-.42.17-.59.14-.29-.05-.48-.32-.48-.75 0-.68.48-1.51 1.07-1.86z" fill="#123eb7" stroke="#002484" stroke-linejoin="round" stroke-width=".2"/><path d="m71.66 67.94c-.26 0-.43-.21-.43-.54 0-.44.31-.99.7-1.21.12-.07.23-.1.33-.1.26 0 .43.21.43.54 0 .44-.31.99-.7 1.21-.11.07-.23.1-.33.1z" fill="#f6f6f6" stroke="#002484" stroke-linejoin="round" stroke-width=".2"/><path d="m71.79 67.61c-.15 0-.25-.12-.25-.31 0-.27.1901-.59.4201-.73.07-.04.13-.06.19-.06.15 0 .25.12.25.31 0 .27-.1901.59-.4201.73-.07.04-.13.06-.19.06z" fill="#718bd4" stroke="#002484" stroke-linejoin="round" stroke-width=".2"/><path d="m65.3101 70.6399s.0899.12.2399.25c.26.22.6301.4801 1.0501.3501.22-.07 1.2299-2.4901 1.2299-2.4901s-.2099-.3999-.9499-.5899c-.81-.21-1.1801.64-1.1801.64z" fill="#002484"/><g stroke="#002484"><path d="m66.9001 68.65c.59-.34 1.08-.07 1.08.61s-.48 1.51-1.07 1.86c-.22.13-.42.17-.59.14-.29-.05-.48-.32-.48-.75 0-.68.48-1.51 1.07-1.86z" fill="#123eb7" stroke-linejoin="round" stroke-width=".2"/><path d="m66.63 70.84c-.26 0-.43-.21-.43-.54 0-.44.31-.99.7-1.21.12-.07.2299-.1.3299-.1.26 0 .4301.21.4301.54 0 .44-.31.99-.7 1.21-.11.07-.23.1-.33.1z" fill="#f6f6f6" stroke-linejoin="round" stroke-width=".2"/><path d="m66.76 70.51c-.15 0-.25-.12-.25-.31 0-.27.19-.59.42-.73.07-.04.13-.06.19-.06.15 0 .25.12.25.31 0 .27-.19.59-.42.73-.07.04-.13.06-.19.06z" fill="#718bd4" stroke-linejoin="round" stroke-width=".2"/><path d="m65.3302 70.1299c-.08.05-.15.17-.15.27v.08c0 .1.07.15.15.1l7.92-4.68c.08-.05.15-.17.15-.27v-.08c0-.1-.07-.15-.15-.1z" fill="#718bd4" stroke-linejoin="round" stroke-width=".2"/><path d="m65.23 63.5999v6.59l8.13-4.77v-6.38z" fill="#f6f6f6" stroke-linejoin="round" stroke-width=".2"/><path d="m61.4701 72.16-.23-.17-1.92.55-.5201-1.03 2.3201-.9.66.72z" fill="#123eb7" stroke-linejoin="round" stroke-width=".2"/><path d="m58.6602 73.4499s.0899.12.2399.25c.26.22.63.48 1.05.35.22-.07 1.23-2.49 1.23-2.49s-.15-.39-.78-.44c-.63-.06-1.35.49-1.35.49z" fill="#002484" stroke-linejoin="round" stroke-width=".2"/><path d="m60.2502 71.4599c.59-.34 1.08-.07 1.08.61s-.48 1.51-1.07 1.86c-.22.13-.42.17-.59.14-.29-.05-.48-.32-.48-.75 0-.68.48-1.51 1.07-1.86z" fill="#123eb7" stroke-linejoin="round" stroke-width=".2"/><path d="m59.98 73.6499c-.26 0-.43-.21-.43-.54 0-.44.3101-.99.7001-1.21.11-.07.2299-.1.3299-.1.26 0 .43.21.43.54 0 .44-.3099.99-.6999 1.21-.11.07-.2301.1-.3301.1z" fill="#f6f6f6" stroke-linejoin="round" stroke-width=".2"/><path d="m60.1101 73.32c-.15 0-.25-.12-.25-.31 0-.27.19-.59.42-.73.07-.04.13-.06.19-.06.15 0 .25.12.25.31 0 .27-.19.59-.42.73-.07.04-.13.06-.19.06z" fill="#718bd4" stroke-linejoin="round" stroke-width=".2"/><path d="m63.5902 65.17c-2.3-1.34-4.17-2.14-4.41-2.06 0 0-.94.21-1.83.96l-1.71 2.52s-1.88 1.71-1.96 2c0 0-.07.45-.03 1.26 0 .16-.05.22.03.35.28.5 1.97 2.14 4.11 2.49 0 0 .36 0 1.35-.66 0 0-.2-.51.08-.6 0 0-.17.09 1.43-.68-.11.05 1.13-.76.83 1.41l1.96-1.1s.31-5.81.16-5.89z" fill="#d0d8f1" stroke-linejoin="round" stroke-width=".2"/><path d="m63.7501 70.9199-.15-5.74s-.14-.07-.19-.05c-.46.24-.95.59-1.01.63-.3.18-.4.27-.57.48-.1.12-.16.24-.3.5l-1.4 2.57s-2.01 1.3-2.25 1.77c-.14.27-.08 1.5-.08 1.5.64.01 1.1-.16 1.54-.37 0 0 .09-.29.16-.39.18-.27 1.37-1.05 1.6-1.09 0 0 .28-.06.32.44.01.12.04.55.05.98l2.29-1.24z" fill="#f6f6f6" stroke-linejoin="round" stroke-width=".2"/></g><path d="m63.0801 65.6499c.08-.05.19 0 .19.11l.03 1.35c0 .37-.19.71-.49.92l-1.66 1.16s-.1 0-.1-.05v-.67c-.01-.15.03-.31.09-.44l.85-1.51c.07-.14.17-.25.3-.33l.77-.53z" fill="#002484"/><path d="m61.4902 66.21-3.85-1.96s-1.32 1.69-1.69 2.21c0 0 .54.9 1.32 1.31s2.68 1.08 2.68 1.08l1.55-2.64z" fill="#002484"/><path d="m59.5001 72.2599-.14-.09c-1.01.33-1.56.43-1.56.43-1.49-.5-2.05-.84-2.69-1.24-.71-.43-1.16-.88-1.31-1.06s-.15-.31-.15-.35c0-.01 0-.02 0-.02-.04 0-.09.05-.1.1-.04.19.02.87.02.87 0 .08.06.51.11.57 1.02 1.2 2.76 1.93 3.82 2.16.22.05.6.03.82-.04l.59-.21c.08-.03.19-.09.25-.14.07-.07.12-.21.12-.21.17-.47.23-.75.23-.75z" fill="#718bd4" stroke="#002484" stroke-linejoin="round" stroke-width=".2"/><path d="m56.6602 71.0199-.25.67s.32.13.59.23c.47.18.7899.25.7899.25l.0201-.66-1.1401-.49z" fill="#002484"/><path d="m53.9801 69.3499-.34-.3s0 .18-.01.26c0 .16.01.51.01.51l.03.07.1.16.12.14.15.15-.06-.98z" fill="#002484"/><path d="m69.1903 82.2899c-.08.02-.49-.17-1.08-.49-2.33-1.26-7.58-4.51-7.58-4.51l15.2-8.63 8.44 4.99z" fill="#fff"/><path d="m75.6902 75.26s.05.07.14.14c.15.13.37.28.61.2.13-.04.72-1.44.72-1.44s-.12-.23-.55-.34c-.47-.12-.74.34-.88.62-.21.4-.03.81-.03.81z" fill="#002484"/><path d="m76.6102 74.11c.34-.2.62-.04.62.36 0 .39-.28.88-.62 1.08-.13.07-.25.1-.34.08-.17-.03-.28-.19-.28-.44 0-.39.28-.88.62-1.08z" fill="#123eb7" stroke="#002484" stroke-linejoin="round" stroke-width=".25"/><path d="m76.4602 75.3799c-.15 0-.25-.12-.25-.31 0-.26.18-.57.4-.7.07-.04.13-.06.19-.06.15 0 .25.12.25.31 0 .26-.18.57-.4.7-.07.04-.13.06-.19.06z" fill="#f6f6f6" stroke="#002484" stroke-linejoin="round" stroke-width=".25"/><path d="m76.5302 75.1799c-.09 0-.1401-.07-.1401-.18 0-.15.1101-.34.2401-.42.04-.02.0799-.03.1099-.03.09 0 .14.07.15.18 0 .15-.11.34-.24.42-.04.02-.08.03-.11.03z" fill="#718bd4" stroke="#002484" stroke-linejoin="round" stroke-width=".25"/><path d="m71.1402 77.9599s.05.07.14.14c.15.13.37.28.61.2.13-.04.72-1.44.72-1.44s-.12-.23-.55-.34c-.47-.12-.74.34-.88.62-.21.4-.03.81-.03.81z" fill="#002484"/><path d="m72.0702 76.8c.34-.2.62-.04.62.36 0 .39-.28.88-.62 1.08-.13.07-.25.1-.34.08-.17-.03-.28-.19-.28-.44 0-.39.28-.88.62-1.08z" fill="#123eb7" stroke="#002484" stroke-linejoin="round" stroke-width=".25"/><path d="m71.9102 78.0699c-.15 0-.25-.12-.25-.31 0-.26.18-.57.4-.7.07-.04.13-.06.19-.06.15 0 .25.12.25.31 0 .26-.18.57-.4.7-.07.04-.13.06-.19.06z" fill="#f6f6f6" stroke="#002484" stroke-linejoin="round" stroke-width=".25"/><path d="m71.9801 77.8799c-.09 0-.14-.07-.14-.18 0-.15.11-.34.24-.42.04-.02.08-.03.11-.03.09 0 .14.07.15.18 0 .15-.11.34-.24.42-.04.02-.08.03-.11.03z" fill="#718bd4" stroke="#002484" stroke-linejoin="round" stroke-width=".25"/><path d="m69.4303 78.8499c.2.24.48-.02.71-.13.39-.23.75-.44 1.09-.64 0-.05.02-.1.02-.16.08-.51.5-1.09.93-1.29.13-.06.35-.09.56-.05.17.03.31.18.41.34.34-.2.69-.4 1.07-.61.15-.1.9-.55 1.65-1.02.02-.08.04-.19.07-.37.12-.64.47-.79.74-.88.12-.04.29-.04.46.02.11.04.2.1.29.18.04-.03.07-.06.08-.08.1-.08.16-.43.16-.43v-.33l-.09-.92-.6-.55s-1.39.28-1.63.4c-1.42.68-2.72 1.95-3.58 3.3-.71.85-2.25 1.26-2.39 2.48-.16.32.01.47.02.76z" style="fill-rule:evenodd;clip-rule:evenodd;fill:#fcfcff;stroke:#002484;stroke-width:.25;stroke-linejoin:round"/><path clip-rule="evenodd" d="m77.3302 73.0899c.06.08.13.09.24.03.01 0 .03-.02.04-.03.04-.03.05-.04.05-.09-.01-.08-.02-.16-.02-.27 0-.02 0-.06 0-.11 0-.03 0-.04-.02-.03 0 0-.01.01-.02.02-.09.09-.17.18-.24.28-.06.08-.07.14-.03.19" fill="#002484" fill-rule="evenodd"/><path d="m77.0003 71.91-3.12-1.81c-.28.03-.57.15-.85.25-1.33.55-3.25 2.01-3.25 2.01s-.95 1.13-1.36 1.7c-.73.64-2.01 1.15-2.12 2.21l.1.45 3.09 2.15-.06-.79c.11-1.06 1.39-1.57 2.12-2.21.55-.51.92-1.24 1.45-1.78 1.19-.94 2.55-1.83 4.02-2.19z" style="fill-rule:evenodd;clip-rule:evenodd;fill:#a0b2e2;stroke:#002484;stroke-width:.25;stroke-linejoin:round"/><path d="m69.9202 72.5599s.6901.39 1.1801.66l1.5599.94v.01c-.08.11-.17.23-.25.34-.21.29-.42.59-.62.89-.1.16-.22.29-.35.36-.02.01-.04.02-.07.03-.01 0-.03.01-.04.02-.02.01-.05.03-.07.04 0 0-1.16-.51-1.53-.79-.4-.3-1-1.01-1-1.01l1.17-1.5z" fill="#002484"/><path d="m72.4803 75.12c.21-.29.4101-.57.6501-.81.31-.24.61-.47.9-.67l.75.98h.0199l-2.5199 1.47-.0201-.18c-.03-.28.05-.56.22-.79z" fill="#002484"/><path d="m77.3103 73.18-2.22 1.29-.78-1.01c.69-.46 1.33-.79 1.95-1.03.18-.07 1.04.75 1.04.75z" fill="#002484"/><path d="m66.3503 76.47-.07-.25.06-.2s.2.08.32.16c.21.13.34.24.34.24l-.04.1c-.05.13-.18.18-.3.12l-.32-.18z" fill="#002484"/><path d="m69.4103 78.31v-.2-.23s-.1701-.13-.2901-.19c-.21-.11-.36-.17-.36-.17l-.05.09c-.06.11-.02.26.09.32l.6101.39z" fill="#002484"/><path d="m68.78 82.6299c-.1.02-.25-.09-.25-.09v.2l.12.05s.07.08.16.13c.1.05.26.14.26.1 0-.02-.03-.04-.06-.06.06.01.14.04.13 0 0-.03-.08-.07-.13-.1.06 0 .14.02.13-.01-.02-.05-.21-.1-.21-.1s-.04-.02-.06-.04c.03-.02.1-.09.04-.1-.04-.01-.09.01-.12.02z" fill="#063abe"/><path d="m67.03 79.96s.26.05.39.25.27 1.34.44 1.58c.25.37.76.77.76.77l-.08.31c-.68-.49-.83-.64-1.03-.87s-.47-2.04-.47-2.04z" fill="#04005a"/><path d="m66.1702 82.77.02 2.39-.48.87c0 .11.08.21.17.24l.24.07.65-.95.14-1.78.31 1.65.27 1.67c0 .12.08.24.19.27l.22.08-.17-1.96-.18-2.43s-.19.21-.49.17-.87-.3-.87-.3z" fill="#04005a"/><path d="m67.4401 81.0199c-.01.34.05.64.05.64.01.66.04 1.23.04 1.23s-.03.32-.59.39c-.61.08-.82-.53-.82-.53s-.02-.49.05-1.22l-.02-.87s-.02-.12.06-.32.46-.36.46-.36h.06l.21-.08" fill="#04005a"/><path d="m66.67 79.76s.03.17 0 .27.14.25.3.29.14-.07.15-.2-.44-.36-.44-.36z" fill="#063abe"/><path d="m66.8601 80.0499s.1501.17.2401.14c.16-.05.2099-.45.1399-.71s-.54-.33-.54-.33l-.06.59" fill="#063abe"/><path d="m66.71 79.56.04.13.05.04v-.29s.06.1199.22.1999c.2.1.34-.0399.34-.0399s.01-.18-.18-.35c-.12-.1-.28-.28-.45-.23s-.11.1499-.11.1499-.16.0301-.04.4301c.06.18.12.27.12.27v-.26l.02-.04z" fill="#04005a"/><path d="m65.7001 83.31c-.05-.13-.01-.34-.01-.34l-.15.02v.14s-.05.09-.05.22-.02.35 0 .34c.01 0 .02-.04.03-.08 0 .08.01.18.04.17.02-.01.03-.1.03-.18.02.07.03.19.05.17.03-.02 0-.28 0-.28s0-.05.01-.08c.03.04.1.12.09.05 0-.05-.04-.12-.06-.16z" fill="#063abe"/><path d="m66.5801 80.11c-.32 0-.62.51-.86 1.02-.26.57-.24 1.92-.24 1.92l.25.05s.09-1.1.22-1.48c.09-.28.25-.51.25-.51" fill="#04005a"/><path d="m66.7501 79.6499-.0201.07s-.0299-.02-.0399-.03c-.03-.03-.05-.1-.04-.15s.04-.06.07-.03.04.09.03.14z" fill="#063abe"/><path d="m67.7 86.9399s.14.2.25.24c.4.14.35.2.38.25.05.1-.17.18-.28.17-.35-.06-.29-.07-.35-.08s-.12 0-.15-.11-.07-.37-.07-.37.07.06.15.01.07-.11.07-.11z" fill="#04005a"/><path d="m66.1601 86.12s-.04.24 0 .41c.18.61.0999.55.0799.6-.04.09-.25-.22-.32-.38-.2-.52-.16-.44-.19-.53s-.08-.17-.02-.23.2201-.16.2201-.16 0 .12.1.22.12.08.12.08z" fill="#04005a"/><path d="m66.4501 79.41s.09.03.26.05.19.08.36.08.37-.04.41-.1-.1-.1-.11-.12 0-.06-.04-.12.05-.14-.14-.29-.33-.11-.46-.08c0 0-.11.08-.13.09-.08.05-.13.15-.13.21v.07s-.06.04-.04.14c0 0-.03.06.02.07z" fill="#000056" stroke="#04005a" stroke-miterlimit="10" stroke-width=".04"/><path d="m66.5101 79.1899s.09.04.22.05.0801.07.0801.12-.1.03-.18.02-.1801-.05-.1801-.05-.0199-.1.0501-.14z" fill="#000056" stroke="#04005a" stroke-miterlimit="10" stroke-width=".04"/><path d="m66.6702 78.87s.27 0 .35.08c0 0 .23.07.17-.05" fill="#000056"/><path d="m66.6702 78.87s.27 0 .35.08c0 0 .23.07.17-.05" stroke="#04005a" stroke-miterlimit="10" stroke-width=".04"/><path d="m67.3802 79.3101s-.1101.1299-.4801.0799z" fill="#000056"/><path d="m67.3802 79.3101s-.1101.1299-.4801.0799" stroke="#04005a" stroke-miterlimit="10" stroke-width=".04"/></svg>