<svg fill="none" height="145" viewBox="0 0 175 145" width="175" xmlns="http://www.w3.org/2000/svg" xmlns:xlink="http://www.w3.org/1999/xlink"><mask id="a" height="10" maskUnits="userSpaceOnUse" width="17" x="23" y="83"><path d="m38.39 86.15v-.06l-3.5601-2.05h-.1899l-4.7901-.46-4.3999 1.33-2.25 2.54.83 2.79 3.5399 2.05 4.9.52 4.44-1.3 2.25-2.57-.8-2.79z" fill="#fff"/></mask><path d="m0 86.44 87.5 50.23 87.5-50.5-87-50.5z" fill="#fff"/><path d="m.5 86.4401 87.5-50.7701" stroke="#002484" stroke-linejoin="round" stroke-width=".25"/><path d="m87.5 143.909-87-50.3589v-7.11l87 50.2299z" fill="#123eb7" stroke="#002484" stroke-linejoin="round" stroke-width=".25"/><path d="m37.3499 97.12 53.8799 31.43 50.6202-29.34-11.96-6.97 25.95-14.19-43.2-23.55z" fill="#ccedd3"/><path d="m141.19 76.6699s-.27.35-.6.35-.6-.35-.6-.35v-3.1h1.19v3.1z" fill="#002484"/><path d="m140.46 73.89c-2.64 0-4.79-2.95-4.79-6.58s3.8-8.7 4.6-8.7c.85 0 4.99 5.03 4.99 8.7s-2.15 6.58-4.79 6.58z" fill="#abdab0"/><path d="m140.26 58.74c.73 0 4.87 4.98 4.87 8.58 0 1.74-.49 3.37-1.39 4.59-.88 1.2-2.04 1.86-3.28 1.86-2.57 0-4.67-2.9-4.67-6.45 0-1.55.72-3.62 1.97-5.67 1.18-1.93 2.24-2.9 2.51-2.9m-.01-.26c-.96 0-4.72 5.12-4.72 8.83 0 3.7 2.2 6.7 4.92 6.7s4.92-3 4.92-6.7-4.16-8.83-5.12-8.83z" fill="#002484"/><path d="m91.11 82.43-15.15-8.55s4-3.04 4.46-2.76 17.32 9.97 17.32 9.97z" fill="#fffbf8"/><path d="m102.2 95.65c7.605 0 13.77-3.7205 13.77-8.31s-6.165-8.31-13.77-8.31-13.7701 3.7205-13.7701 8.31 6.1651 8.31 13.7701 8.31z" fill="#fffbf8"/><path d="m104.46 117.93s-.27.35-.6.35-.6-.35-.6-.35v-3.1h1.19v3.1z" fill="#002484"/><path d="m103.72 115.15c-2.64 0-4.7903-2.95-4.7903-6.58s3.8003-8.7 4.6003-8.7c.85 0 4.99 5.03 4.99 8.7s-2.15 6.58-4.79 6.58z" fill="#d5edd7"/><path d="m103.53 100c.73 0 4.87 4.98 4.87 8.58 0 1.74-.49 3.37-1.39 4.59-.88 1.2-2.04 1.86-3.28 1.86-2.57 0-4.6702-2.9-4.6702-6.45 0-1.55.72-3.62 1.9702-5.67 1.18-1.93 2.24-2.9 2.51-2.9m-.01-.26c-.96 0-4.7202 5.12-4.7202 8.83 0 3.7 2.2002 6.7 4.9202 6.7s4.92-3 4.92-6.7-4.16-8.83-5.12-8.83z" fill="#002484"/><path d="m99.5899 120.75s-.27.35-.6.35-.6-.35-.6-.35v-3.1h1.19v3.1z" fill="#002484"/><path d="m98.8501 117.97c-2.64 0-4.79-2.95-4.79-6.58s3.8-8.7 4.6-8.7c.85 0 4.9899 5.03 4.9899 8.7s-2.15 6.58-4.79 6.58z" fill="#d5edd7"/><path d="m98.6599 102.81c.73 0 4.8701 4.98 4.8701 8.58 0 1.74-.49 3.37-1.39 4.59-.88 1.2-2.04 1.86-3.2801 1.86-2.57 0-4.67-2.9-4.67-6.45 0-1.55.72-3.62 1.97-5.67 1.18-1.93 2.24-2.9 2.51-2.9m-.01-.26c-.96 0-4.72 5.12-4.72 8.83 0 3.7 2.2 6.7 4.92 6.7 2.7201 0 4.9201-3 4.9201-6.7s-4.1601-8.83-5.1201-8.83z" fill="#002484"/><path d="m49.2198 98.81s-.27.35-.6.35-.6-.35-.6-.35v-3.1h1.19v3.1z" fill="#002484"/><path d="m48.4797 96.03c-2.64 0-4.79-2.95-4.79-6.58 0-3.8 3.8-8.7 4.6-8.7.85 0 4.99 5.03 4.99 8.7s-2.15 6.58-4.79 6.58z" fill="#d5edd7"/><path d="m48.2798 80.88c.73 0 4.87 4.98 4.87 8.58 0 1.74-.49 3.37-1.39 4.59-.88 1.2-2.04 1.86-3.28 1.86-2.57 0-4.67-2.9-4.67-6.45 0-1.55.72-3.62 1.97-5.67 1.18-1.93 2.24-2.9 2.51-2.9m-.01-.26c-.96 0-4.72 5.12-4.72 8.83 0 3.7 2.2 6.7 4.92 6.7s4.92-3 4.92-6.7-4.16-8.83-5.12-8.83z" fill="#002484"/><path d="m59.4199 89.93-.1-.02.08-.05-.04-.2-.1-.03.08-.05-.04-.2-.1-.02.08-.05-.05-.21-.1-.02.08-.05-.04-.2-.15-.04-4.63 2.69.04.2.1.02-.08.05.05.21.1.02-.09.05.05.2.1.02-.08.05.04.21.1.02-.08.05.05.2.15.04 4.63-2.68z" fill="#000056" stroke="#000056" stroke-linejoin="round" stroke-width=".25"/><path d="m56.4298 93.9801s-.02-.09-.04-.1-1.43-.82-1.43-.82l-.16.09 1.39.8.08.06" fill="#000056"/><path d="m56.4199 93.9399s-.02-.03-.03-.05c-.01-.01-.0201-.02-.0301-.03l-1.39-.8-.3799-1.7s-.0001-.01-.0101-.02c0-.01-.02-.02-.04-.03-.05-.03-.1199-.04-.1499-.02l-.1601.09s-.02.02-.01.03l.4 1.78v1.39l.2201.13.16-.0899v-.9501l1.06.61v1.14l.1999.11.18-.08v-1.4399s0-.0401-.01-.0601z" fill="#000056"/><path d="m54.8999 93.42.17.09v-.16l-.17-.09z" fill="#000056"/><path d="m61.1299 91.25s-.02-.03-.03-.05c-.01-.01-.02-.02-.03-.03l-1.39-.8-.38-1.7s0-.01-.01-.02c0-.01-.02-.02-.04-.03-.05-.03-.12-.04-.15-.02l-.16.09s-.02.02-.01.03l.4 1.78v.21l-4.21 2.44.17.1v.11l-.1.06v.16l.17.1.11-.06v.12l.17.1.11-.06v.12l.17.1.11-.06v.12l.17.1v-.16h.27l4.24-2.44.1.06v1.14l.2.11.18-.08v-1.44s0-.04-.01-.06z" fill="#000056"/><path d="m105.2 80.02c-.06.02.01.1.05.13-.02.02-.07.05-.07.05s-.23.07-.25.12c-.02.04.09.02.16.02-.07.03-.15.08-.16.12s.09 0 .15 0c-.04.03-.07.06-.07.08 0 .06.19-.06.31-.12s.19-.16.19-.16l.13-.06v-.24s-.18.14-.3.11c-.04-.02-.1-.04-.15-.03z" fill="#063abe"/><path d="m107.44 76.85s-.31.06-.46.3-.33 1.61-.52 1.89c-.3.44-.91.92-.91.92l.1.37c.82-.58 1-.76 1.23-1.04s.57-2.45.57-2.45z" fill="#04005a"/><path d="m108.47 80.21-.14 3.07v1.75c0 .13-.06.31-.17.35l-.36-.02-.04-2-.17-2.13-.37 1.98-.32 2c0 .14-.1.28-.22.32l-.26.09.2-2.34.21-2.91s.22.25.59.21 1.04-.36 1.04-.36z" fill="#04005a"/><path d="m106.95 78.12c.02.4-.06.77-.06.77-.01.79-.05 1.47-.05 1.47s.04.38.7.47c.73.1.98-.64.98-.64s.03-.59-.06-1.46l.02-1.04s.02-.14-.07-.38-.55-.44-.55-.44h-.07l-.26-.1" fill="#04005a"/><path d="m107.88 76.6s-.03.21 0 .33-.17.3-.35.35-.17-.09-.18-.24.53-.43.53-.43z" fill="#063abe"/><path d="m107.65 76.96s-.18.21-.29.17c-.19-.06-.25-.54-.17-.85s.65-.4.65-.4l.07.71" fill="#063abe"/><path d="m107.82 76.37-.05.16-.06.05v-.35s-.07.15-.26.24c-.24.12-.4-.04-.4-.04s-.02-.22.22-.42c.14-.12.34-.33.54-.28s.13.17.13.17.19.03.05.51c-.07.22-.14.32-.14.32l.02-.31z" fill="#04005a"/><path d="m108.97 81.06c0 .08.08-.02.11-.06 0 .03.01.09.01.09s-.02.3.01.33c.03.02.04-.12.06-.21 0 .09.01.2.04.21s.03-.11.04-.2c0 .05.02.09.04.1.04.01.02-.25.01-.41 0-.15-.06-.26-.06-.26v-.17l-.18-.02s.04.25-.01.4c-.02.05-.06.13-.07.19z" fill="#063abe"/><path d="m107.98 77.02c.38.01.74.61 1.03 1.23.31.68.29 2.3.29 2.3l-.3.06s-.1-1.31-.27-1.77c-.1-.34-.3-.61-.3-.61" fill="#04005a"/><path d="m107.78 76.48.03.09s.04-.02.05-.04c.04-.04.06-.12.05-.18s-.05-.08-.09-.04-.05.11-.04.17z" fill="#063abe"/><path d="m106.63 85.21s-.17.24-.3.28c-.48.17-.42.24-.45.3-.06.12.21.22.34.2.42-.07.35-.08.42-.1s.14 0 .17-.13.08-.44.08-.44-.09.07-.18.01-.08-.13-.08-.13z" fill="#04005a"/><path d="m107.96 85.14s-.07.28-.18.37c-.38.33-.3.37-.31.45 0 .14.27.13.39.06.36-.22.29-.2.36-.25s.13-.06.11-.19-.09-.44-.09-.44-.05.1-.16.08-.12-.09-.12-.09z" fill="#04005a"/><path d="m102.02 79.92c0 .07.1 0 .13-.03.01.03.03.08.03.08s.02.24.07.27c.04.02.04-.08.05-.15.02.07.05.16.08.18.04.02.02-.08.02-.15.02.04.04.08.06.08.05.02-.02-.2-.06-.32s-.12-.22-.12-.22l-.04-.14-.23-.06s.1.21.05.32c-.02.03-.06.09-.06.14z" fill="#063abe"/><path d="m101 75.78s.31.06.46.3.2 1.74.39 2.03c.2.57.44 1.49.44 1.49l-.24.11c-.28-.84-.38-.9-.54-1.36-.12-.34-.52-2.57-.52-2.57z" fill="#04005a"/><path d="m99.97 79.14.14 3.07v1.75c0 .13.06.31.17.35l.36-.02.04-2 .17-2.13.37 1.98.32 2c0 .14.1.28.22.32l.26.09-.2-2.34-.21-2.91s-.22.25-.59.21-1.0401-.36-1.0401-.36z" fill="#04005a"/><path d="m101.5 77.05c-.02.4.06.77.06.77.01.79.05 1.47.05 1.47s-.04.38-.7.47c-.73.1-.9802-.64-.9802-.64s-.03-.59.06-1.46l-.0199-1.04s-.0201-.14.0701-.38c.09-.24.55-.44.55-.44h.07l.26-.1" fill="#04005a"/><path d="m100.57 75.54s.03.21 0 .33.17.3.35.35.17-.09.18-.24-.53-.43-.53-.43z" fill="#063abe"/><path d="m100.8 75.8901s.18.21.29.17c.19-.06.25-.54.17-.85s-.65-.4-.65-.4l-.07.71" fill="#063abe"/><path d="m100.62 75.3.05.16.06.05v-.35s.07.15.26.24c.24.12.4-.04.4-.04s.02-.22-.22-.42c-.14-.12-.34-.33-.54-.28s-.13.17-.13.17-.19.03-.05.51c.07.22.14.32.14.32l-.02-.31z" fill="#04005a"/><path d="m99.41 79.79c-.06-.16-.01-.4-.01-.4l-.18.02v.17s-.06.11-.06.26-.03.42.01.41c.01 0 .03-.05.04-.1.01.09.02.22.04.2.02-.01.03-.12.04-.21.02.09.04.23.06.21.03-.03.01-.33.01-.33s0-.06.01-.09c.03.05.12.15.11.06 0-.07-.04-.14-.07-.19z" fill="#063abe"/><path d="m100.46 75.95c-.38.01-.7401.61-1.0301 1.23-.31.68-.29 2.3-.29 2.3l.3.06s.1-1.31.27-1.77c.1-.34.3001-.61.3001-.61" fill="#04005a"/><path d="m100.67 75.41-.03.09s-.04-.0199-.05-.0399c-.04-.04-.06-.1201-.05-.1801s.05-.0799.09-.0399.05.1099.04.1699z" fill="#063abe"/><path d="m101.81 84.14s.17.24.3.28c.48.17.42.24.45.3.06.12-.21.22-.34.2-.42-.07-.35-.08-.42-.1s-.14 0-.17-.13-.08-.44-.08-.44.09.07.18.01.08-.13.08-.13z" fill="#04005a"/><path d="m100.49 84.0701s.07.28.18.37c.38.33.3.37.31.45 0 .14-.27.13-.39.06-.36-.22-.29-.2-.36-.25s-.13-.06-.11-.19.09-.44.09-.44.05.1.16.08.12-.09.12-.09z" fill="#04005a"/><path d="m98.58 85.1399c0 .07.1001 0 .1301-.03.01.03.03.08.03.08s.02.24.07.27c.04.02.0399-.08.0499-.15.02.07.0501.16.0801.18.04.02.02-.08.02-.15.02.04.04.08.06.08.05.02-.02-.2-.06-.32s-.12-.22-.12-.22l-.0401-.14-.2299-.06s.1.21.05.32c-.02.03-.06.09-.06.14z" fill="#063abe"/><path d="m97.5601 81s.31.06.46.3.2 1.74.39 2.03c.2.57.44 1.49.44 1.49l-.2401.11c-.28-.84-.3799-.9-.5399-1.36-.12-.34-.5201-2.57-.5201-2.57z" fill="#04005a"/><path d="m96.53 84.36.14 3.07v1.75c0 .13.06.31.17.35l.36-.02.04-2 .17-2.13.37 1.98.32 2c0 .14.1.28.22.32l.26.09-.2-2.34-.21-2.91s-.22.25-.59.21-1.04-.36-1.04-.36z" fill="#04005a"/><path d="m98.0499 82.2699c-.02.4.06.77.06.77.01.79.05 1.47.05 1.47s-.04.38-.7.47c-.73.1-.98-.64-.98-.64s-.03-.59.06-1.46l-.02-1.04s-.02-.14.07-.38.55-.44.55-.44h.07l.26-.1" fill="#04005a"/><path d="m97.12 80.76s.03.21 0 .33.17.3.35.35.17-.09.18-.24-.53-.43-.53-.43z" fill="#04005a"/><path d="m97.3499 81.11s.1799.21.2899.17c.19-.06.25-.54.17-.85s-.6499-.4-.6499-.4l-.0701.71" fill="#04005a"/><path d="m97.18 80.52.05.16.06.05v-.35s.07.15.26.24c.24.12.4-.04.4-.04s.02-.22-.22-.42c-.14-.12-.34-.33-.54-.28s-.13.17-.13.17-.19.03-.05.51c.07.22.14.32.14.32l-.02-.31z" fill="#04005a"/><path d="m95.96 85.02c-.06-.16-.01-.4-.01-.4l-.18.02v.17s-.06.11-.06.26-.03.42.01.41c.01 0 .03-.05.04-.1.01.09.02.22.04.2.02-.01.03-.12.04-.21.02.09.04.23.06.21.03-.03.01-.33.01-.33s0-.06.01-.09c.03.05.12.15.11.06 0-.07-.04-.14-.07-.19z" fill="#063abe"/><path d="m97.02 81.1699c-.38.01-.74.61-1.03 1.23-.31.68-.29 2.3-.29 2.3l.3.06s.1-1.31.27-1.77c.1-.34.3-.61.3-.61" fill="#04005a"/><path d="m97.2299 80.63-.03.09s-.04-.02-.05-.04c-.04-.04-.0599-.12-.0499-.18s.05-.08.09-.04.0499.11.0399.17z" fill="#04005a"/><path d="m98.3701 89.36s.17.24.3.28c.48.17.42.24.45.3.06.12-.21.22-.34.2-.42-.07-.35-.08-.42-.1s-.14 0-.17-.13-.08-.44-.08-.44.09.07.18.01.08-.13.08-.13z" fill="#04005a"/><path d="m97.0399 89.29s.07.28.18.37c.38.33.3.37.31.45 0 .14-.27.13-.39.06-.36-.22-.29-.2-.36-.25s-.13-.06-.11-.19.09-.44.09-.44.05.1.16.08.12-.09.12-.09z" fill="#04005a"/><path d="m105.59 84.9401c.11 1.58-2.14 1.91-2.36 1.9s-2.6.09-2.63-1.8" fill="#eff1fe"/><path d="m105.59 84.9401c.11 1.58-2.14 1.91-2.36 1.9s-2.6.09-2.63-1.8" stroke="#002484" stroke-miterlimit="10" stroke-width=".25"/><path d="m103.08 85.84c1.386 0 2.51-.4029 2.51-.9 0-.497-1.124-.9-2.51-.9s-2.51.403-2.51.9c0 .4971 1.124.9 2.51.9z" fill="#f57118" stroke="#002484" stroke-miterlimit="10" stroke-width=".25"/><path d="m104.59 86.14.59 2.78" stroke="#002484" stroke-miterlimit="10" stroke-width=".25"/><path d="m101.5 86.14-.86 2.78" stroke="#002484" stroke-miterlimit="10" stroke-width=".25"/><path d="m104.95 86.14.54 1.01" stroke="#002484" stroke-miterlimit="10" stroke-width=".25"/><path d="m102.22 86.75-.12.56" stroke="#002484" stroke-miterlimit="10" stroke-width=".25"/><path d="m103.9 74.7901c.342 0 .62-.2776.62-.6201 0-.3424-.278-.62-.62-.62-.343 0-.62.2776-.62.62 0 .3425.277.6201.62.6201z" fill="#f57118"/><path d="m100.05 73.41c.342 0 .62-.2775.62-.6199 0-.3425-.278-.6201-.62-.6201-.3425 0-.6201.2776-.6201.6201 0 .3424.2776.6199.6201.6199z" fill="#f57118"/><path d="m106.76 74.03c.342 0 .62-.2775.62-.62 0-.3424-.278-.62-.62-.62-.343 0-.62.2776-.62.62 0 .3425.277.62.62.62z" fill="#f57118"/><path d="m101.24 78.35c.342 0 .62-.2776.62-.62s-.278-.62-.62-.62c-.343 0-.62.2776-.62.62s.277.62.62.62z" fill="#f57118"/><path d="m103.28 72.7901c.342 0 .62-.2776.62-.6201 0-.3424-.278-.62-.62-.62-.343 0-.62.2776-.62.62 0 .3425.277.6201.62.6201z" fill="#f57118"/><path d="m108.21 77.0401c.342 0 .62-.2776.62-.6201 0-.3424-.278-.62-.62-.62-.343 0-.62.2776-.62.62 0 .3425.277.6201.62.6201z" fill="#f57118"/><path d="m101.66 75.5499c.237 0 .43-.1925.43-.43 0-.2374-.193-.43-.43-.43s-.43.1926-.43.43c0 .2375.193.43.43.43z" fill="#f57118"/><path d="m98.5499 75.97c.2374 0 .43-.1925.43-.43s-.1926-.43-.43-.43c-.2375 0-.43.1925-.43.43s.1925.43.43.43z" fill="#f57118"/><path d="m104.5 82.19c.237 0 .43-.1926.43-.43 0-.2375-.193-.43-.43-.43-.238 0-.43.1925-.43.43 0 .2374.192.43.43.43z" fill="#f57118"/><path d="m98.13 79.35c.2375 0 .43-.1925.43-.43s-.1925-.43-.43-.43-.43.1925-.43.43.1925.43.43.43z" fill="#f57118"/><path d="m105.15 76.4c.237 0 .43-.1925.43-.43s-.193-.43-.43-.43c-.238 0-.43.1925-.43.43s.192.43.43.43z" fill="#f57118"/><path d="m103.9 78.9201c.237 0 .43-.1926.43-.43 0-.2375-.193-.43-.43-.43-.238 0-.43.1925-.43.43 0 .2374.192.43.43.43z" fill="#f57118"/><path d="m106.76 79.35c.237 0 .43-.1925.43-.43s-.193-.43-.43-.43c-.238 0-.43.1925-.43.43s.192.43.43.43z" fill="#f57118"/><path d="m97.8299 72.96c.2375 0 .43-.1925.43-.43s-.1925-.43-.43-.43-.43.1925-.43.43.1925.43.43.43z" fill="#f57118"/><path d="m101.24 71.24c.237 0 .43-.1925.43-.43s-.193-.43-.43-.43c-.238 0-.43.1925-.43.43s.192.43.43.43z" fill="#f57118"/><path d="m99.8599 81.34c.2371 0 .4301-.1925.4301-.43s-.193-.43-.4301-.43c-.2375 0-.43.1925-.43.43s.1925.43.43.43z" fill="#f57118"/><path d="m105.35 71.66c.237 0 .43-.1925.43-.4299 0-.2375-.193-.4301-.43-.4301-.238 0-.43.1926-.43.4301 0 .2374.192.4299.43.4299z" fill="#f57118"/><path d="m101.74 84.1801 1.79 1.64" stroke="#04005a" stroke-miterlimit="10" stroke-width=".1"/><path d="m102.75 84.04 1.78 1.61" stroke="#04005a" stroke-miterlimit="10" stroke-width=".1"/><path d="m102.3 84.12 1.78 1.62" stroke="#04005a" stroke-miterlimit="10" stroke-width=".1"/><path d="m101.27 84.33 1.67 1.52" stroke="#04005a" stroke-miterlimit="10" stroke-width=".1"/><path d="m100.76 84.48 1.47 1.33" stroke="#04005a" stroke-miterlimit="10" stroke-width=".1"/><path d="m100.58 84.79.92.84" stroke="#04005a" stroke-miterlimit="10" stroke-width=".1"/><path d="m103.86 84.0701 1.45 1.34" stroke="#04005a" stroke-miterlimit="10" stroke-width=".1"/><path d="m104.5 84.2 1.02.95" stroke="#04005a" stroke-miterlimit="10" stroke-width=".1"/><path d="m103.25 84.01 1.7 1.57" stroke="#04005a" stroke-miterlimit="10" stroke-width=".1"/><path d="m104.41 84.2001-1.8 1.54" stroke="#04005a" stroke-miterlimit="10" stroke-width=".1"/><path d="m103.39 84.0701-1.78 1.52" stroke="#04005a" stroke-miterlimit="10" stroke-width=".1"/><path d="m103.85 84.15-1.78 1.52" stroke="#04005a" stroke-miterlimit="10" stroke-width=".1"/><path d="m104.88 84.3401-1.67 1.43" stroke="#04005a" stroke-miterlimit="10" stroke-width=".1"/><path d="m105.38 84.48-1.46 1.25" stroke="#04005a" stroke-miterlimit="10" stroke-width=".1"/><path d="m105.57 84.78-.92.78" stroke="#04005a" stroke-miterlimit="10" stroke-width=".1"/><path d="m102.28 84.1001-1.45 1.26" stroke="#04005a" stroke-miterlimit="10" stroke-width=".1"/><path d="m101.65 84.22-1.03.89" stroke="#04005a" stroke-miterlimit="10" stroke-width=".1"/><path d="m102.89 84.04-1.7 1.47" stroke="#04005a" stroke-miterlimit="10" stroke-width=".1"/><path d="m65.7299 86.86c-.03-.1-.1499-.21-.2599-.23-.05-.01-.1 0-.12.03l-.42.47v-5.4h-.98v8.84c0 .07.05.14.14.2.19.11.5.11.69 0 .09-.06.14-.13.14-.2v-2.7l.78-.88s.03-.07.01-.12z" fill="#002484"/><path d="m65.99 85.58c-.41 0-.81-.07-1.19-.2-.95-.33-1.73-.49-2.46-.49-.58 0-1.17-.36-1.48-.89-.28-.48-.28-1.02 0-1.5.02-.04.02-.1 0-.14-1.27-1.65-.91-3.89-.15-5.44.87-1.77 2.32-2.92 3.7-2.92.63 0 1.22.23 1.77.69.41.34 1 .58 1.62.84 1.03.42 2.09.86 2.45 1.81.27.71.12 1.63-.45 2.81-.02.03-.02.07 0 .1.48 1.19.35 2.43-.36 3.48-.76 1.12-2.1 1.85-3.42 1.85z" fill="#2ea339"/><path d="m64.39 74.13c.6 0 1.16.22 1.69.66.43.36 1.02.6 1.65.86 1 .41 2.04.84 2.38 1.74.26.67.11 1.56-.45 2.71-.03.06-.03.14 0 .2.46 1.15.34 2.35-.35 3.36-.74 1.09-2.04 1.79-3.32 1.79-.4 0-.78-.07-1.15-.19-.96-.34-1.76-.5-2.5-.5-.53 0-1.09-.33-1.37-.82-.15-.26-.35-.78 0-1.38.05-.09.04-.2-.02-.28-1.24-1.61-.88-3.8-.13-5.31.85-1.73 2.26-2.85 3.59-2.85m-.02-.24c-3.11 0-6.01 5.49-3.65 8.56-.7 1.24.41 2.57 1.6 2.57.83 0 1.64.21 2.42.48.4.14.82.21 1.23.21 2.58 0 5.05-2.61 3.9-5.49 2.15-4.43-2.11-4.33-3.65-5.61-.6-.5-1.23-.72-1.85-.72z" fill="#002484"/><path d="m134.89 80.3799s-.27.35-.6.35-.6-.35-.6-.35v-3.1h1.19v3.1z" fill="#002484"/><path d="m134.15 77.5999c-2.64 0-4.79-2.95-4.79-6.58s3.8-8.7 4.6-8.7c.85 0 4.99 5.03 4.99 8.7s-2.15 6.58-4.79 6.58z" fill="#abdab0"/><path d="m133.96 62.45c.73 0 4.87 4.98 4.87 8.58 0 1.74-.49 3.37-1.39 4.59-.88 1.2-2.04 1.86-3.28 1.86-2.57 0-4.67-2.9-4.67-6.45 0-1.55.72-3.62 1.97-5.67 1.18-1.93 2.24-2.9 2.51-2.9m-.01-.26c-.96 0-4.72 5.12-4.72 8.83 0 3.7 2.2 6.7 4.92 6.7s4.92-3 4.92-6.7-4.16-8.83-5.12-8.83z" fill="#002484"/><g stroke-linejoin="round"><path clip-rule="evenodd" d="m77.53 36.15 5.34 11.1 9.56-3.62-11.53-6.81z" fill="#cdd8f2" fill-rule="evenodd" stroke="#00208a" stroke-width=".25"/><path clip-rule="evenodd" d="m89.1499 42.95-4.27 4.89 7.55-4.21z" fill="#cdd8f2" fill-rule="evenodd" stroke="#00208a" stroke-width=".25"/><path d="m73.3398 41.09.03 11.35 11.46 6.72.03-11.3z" fill="#cdd8f2" stroke="#00208a" stroke-width=".25"/><path clip-rule="evenodd" d="m92.3298 54.82-7.5 4.34.0501-11.32 7.5399-4.21z" fill="#fff" fill-rule="evenodd" stroke="#00208a" stroke-width=".25"/><path clip-rule="evenodd" d="m89.1498 42.95-11.62-6.8-4.23 4.92 11.62 6.79z" fill="#063abe" fill-rule="evenodd" stroke="#00208a" stroke-width=".25"/><path clip-rule="evenodd" d="m69.95 40.39 5.35 11.11 9.55-3.63-11.52-6.8z" fill="#cdd8f2" fill-rule="evenodd" stroke="#00208a" stroke-width=".25"/><path clip-rule="evenodd" d="m81.5798 47.1899-4.28 4.89 7.55-4.21z" fill="#cdd8f2" fill-rule="evenodd" stroke="#00208a" stroke-width=".25"/><path d="m65.76 45.33.03 11.35 11.52 6.77-.02-11.34z" fill="#6a89d8" stroke="#00208a" stroke-width=".25"/><path clip-rule="evenodd" d="m84.83 59.16-7.55 4.29.02-11.37 7.55-4.21z" fill="#fff" fill-rule="evenodd" stroke="#00208a" stroke-width=".25"/><path clip-rule="evenodd" d="m81.58 47.19-11.63-6.8-4.22 4.92 11.62 6.8z" fill="#063abe" fill-rule="evenodd" stroke="#00208a" stroke-width=".25"/><path d="m71.8099 37.65-22.31 11.97-13.09-7.52 22.31-11.97z" fill="#cdd8f2" stroke="#00208a" stroke-width=".25"/><path d="m59.1799 62.29 10.89 6.11v-15.81l-10.89-6.11z" fill="#6a89d8" stroke="#00208a" stroke-width=".25"/><path d="m70.0698 52.59v15.81l1.5-.8v-15.81z" fill="#fff" stroke="#00208a" stroke-width=".25"/><path d="m67.4898 52.14.25 14.96-39.92 23v-14.96z" fill="#fff" stroke="#00208a" stroke-width=".25"/><path d="m49.5 42.91 21.05-11.29v1.65l-21.05 11.3z" fill="#063abe" stroke="#00208a" stroke-width=".25"/><path d="m71.8099 25.76-22.31 11.97-13.09-7.51 22.31-11.98z" fill="#cdd8f2" stroke="#00208a" stroke-width=".25"/><path d="m37.1499 35.8201 12.35 7.09v1.66l-12.35-7.09z" fill="#063abe" stroke="#00208a" stroke-width=".25"/><path d="m36.4099 30.25 13.09 7.51v5.27l-13.09-7.51z" fill="#6a89d8" stroke="#00208a" stroke-width=".25"/><path d="m49.5 36.13 21.05-11.3v1.66l-21.05 11.29z" fill="#063abe" stroke="#00208a" stroke-width=".25"/><path d="m71.8099 13.94-22.31 11.97-13.09-7.52 22.31-11.96996z" fill="#fffaf7" stroke="#00208a" stroke-width=".25"/></g><path d="m36.53 35.5v-4.98l12.85 7.37v4.98z" fill="#6a89d8"/><path d="m36.6599 30.7301 12.59 7.23v4.6999l-12.59-7.2299zm-.25-.4301v5.2701l13.09 7.5199v-5.2699z" fill="#00208a"/><path d="m37.1499 29.04 12.35 7.09v1.65l-12.35-7.09z" fill="#063abe" stroke="#00208a" stroke-linejoin="round" stroke-width=".25"/><path d="m49.4999 25.94v10.23l-13.09-7.5199v-10.22z" fill="#6a89d8" stroke="#00208a" stroke-linejoin="round" stroke-width=".25"/><path d="m49.6299 25.9999 22.06-11.84v16.92l-22.06 11.83z" fill="#fff"/><path d="m71.57 14.37v16.63l-21.82 11.7v-16.63zm.25-.41-22.31 11.97v17.19l22.31-11.97z" fill="#00208a"/><path d="m41.0999 71.24 7.38-4.27.02 5.49-7.3901 4.28z" fill="#fffbf8" stroke="#002484" stroke-linejoin="round" stroke-width=".24"/><path d="m41.1099 76.22v.52l7.39-4.28-.41-.24z" fill="#1a3a90"/><path d="m48.0898 72.22.41.24-.02-5.49-.39.22z" fill="#4d66a9"/><path d="m32.3198 76.12 7.39-4.27.01 5.49-7.38 4.28z" fill="#fffbf8" stroke="#002484" stroke-linejoin="round" stroke-width=".24"/><path d="m32.3398 81.09v.53l7.38-4.28-.41-.25z" fill="#1a3a90"/><path d="m39.3098 77.09.41.25-.01-5.49-.4.22z" fill="#4d66a9"/><path d="m71.6198 49.94-22.08 11.85-12.95-7.44 22.08-11.85z" fill="#cdd8f2" stroke="#00208a" stroke-linejoin="round" stroke-width=".25"/><path d="m49.5898 61.75 22.08-11.85v2.59l-22.08 11.85z" fill="#fff" stroke="#00208a" stroke-linejoin="round" stroke-width=".25"/><path d="m49.54 61.82-22.08 11.84-12.96-7.43 22.08-11.85z" fill="#cdd8f2" stroke="#00208a" stroke-linejoin="round" stroke-width=".25"/><path d="m15.1699 66.04 12.95 7.44v2.59l-12.95-7.44z" fill="#063abe" stroke="#00208a" stroke-linejoin="round" stroke-width=".25"/><path d="m14.5 84.17 12.42 7.05v-15.81l-12.42-7.05z" fill="#6a89d8" stroke="#00208a" stroke-linejoin="round" stroke-width=".25"/><path d="m39.6298 75.37c-.16 0-.17-.18-.17-.26 0-.04-.02-.1-.06-.13l-3.34-3.22 6.48-3.67 3.29 3.16c-.04.23-.26.62-.52.77-.07.04-.13.06-.19.06-.16 0-.17-.18-.17-.26 0-.04-.02-.08-.05-.1-.02-.02-.05-.02-.07-.02-.01 0-.03 0-.04 0-.06.02-.1.07-.09.13 0 .33-.22.72-.48.88-.07.04-.13.06-.18.06-.15 0-.17-.18-.17-.26 0 0 0-.01 0-.02 0-.05-.02-.1-.06-.13-.02-.02-.05-.03-.08-.03-.02 0-.03 0-.05.01 0 0-.06.07-.06.12v.04c0 .31-.22.68-.48.83-.07.04-.13.06-.19.06-.16 0-.17-.18-.17-.26 0-.05-.02-.1-.06-.13-.03-.02-.05-.03-.08-.03-.02 0-.03 0-.04.01-.04.02-.1.09-.1.13 0 .3-.22.69-.49.84-.07.04-.13.06-.19.06-.16 0-.17-.18-.17-.26 0-.04-.02-.09-.06-.11-.02-.01-.04-.02-.07-.02-.02 0-.04 0-.06.01-.04.02-.08.07-.07.12 0 .34-.22.73-.48.88-.07.04-.13.06-.19.06-.15 0-.17-.18-.17-.26 0 0 0 0 0-.01 0-.05-.02-.11-.06-.13-.03-.02-.06-.03-.09-.03-.01 0-.03 0-.04.01 0 0-.06.07-.06.12v.04c0 .31-.22.68-.48.83-.07.04-.13.06-.19.06z" fill="#063abe"/><path d="m42.5199 68.2399 3.15 3.02c-.04.25-.22.53-.42.65-.07.04-.11.04-.12.04-.05 0-.05-.13-.05-.14 0-.09-.05-.17-.13-.21-.04-.02-.08-.03-.12-.03-.05 0-.09.01-.13.04-.08.05-.12.16-.12.26 0 .26-.2.6-.42.74-.07.04-.11.04-.12.04-.05 0-.05-.13-.05-.14 0 0 0-.0199 0-.03 0-.09-.04-.18-.12-.23-.04-.02-.08-.04-.13-.04s-.09.01-.13.04c-.08.05-.13.15-.12.25v.01c0 .26-.2.6-.42.73-.07.04-.11.04-.12.04-.05 0-.05-.13-.05-.16 0-.09-.06-.17-.14-.21-.03-.02-.08-.03-.12-.03-.05 0-.11.02-.16.04-.08.04-.12.13-.12.22 0 .26-.2.6-.42.74-.07.04-.11.04-.12.04-.05 0-.05-.13-.05-.14 0-.09-.05-.17-.13-.21-.04-.02-.08-.03-.12-.03-.05 0-.09.01-.13.04-.08.05-.12.16-.12.26 0 .26-.2.6-.42.74-.07.04-.11.04-.12.04-.05 0-.05-.1299-.05-.14 0 0 0-.02 0-.03 0-.09-.04-.18-.12-.23-.04-.02-.08-.04-.13-.04s-.09.01-.13.04c-.08.05-.13.15-.12.25v.01c0 .2601-.2.6-.42.73-.07.04-.11.04-.12.04-.05 0-.05-.13-.05-.16 0-.09-.05-.17-.13-.22l-3.18-3.07 6.25-3.54m.03-.32-6.7 3.8 3.46 3.34h.01v.03c0 .24.12.39.3.39.07 0 .16-.03.25-.08.3-.18.54-.59.54-.94 0 .24.12.38.3.38.07 0 .16-.03.25-.08.3-.18.55-.6.55-.95 0-.02 0-.03 0-.04 0 .24.12.39.3.39.07 0 .16-.03.25-.08.3-.18.55-.6.55-.95l.04-.02v.04c0 .24.12.39.3.39.07 0 .16-.0299.25-.08.3-.1799.54-.59.54-.94 0 .24.12.38.3.38.07 0 .16-.03.25-.08.3-.18.55-.6.55-.95 0-.02 0-.03 0-.04 0 .24.12.39.3.39.07 0 .16-.03.25-.08.3-.18.55-.6.55-.95 0 0 0-.01 0-.02l-3.36-3.23zm1.17 4.56s0-.02 0-.03zm-3.31 1.96s0-.02 0-.03z" fill="#00208a"/><path d="m26.77 75.43v15.81l1.51-.8v-15.82z" fill="#cdd8f2" stroke="#00208a" stroke-linejoin="round" stroke-width=".25"/><path d="m33.25 79.03c-.16 0-.1701-.18-.1701-.2599 0-.04-.02-.1-.06-.12l-3.5699-3.44 6.55-3.4101 3.45 3.1301c-.04.23-.2601.6199-.5201.7699-.07.04-.13.0601-.19.0601-.16 0-.17-.1801-.17-.2601 0-.04-.02-.0799-.05-.0999-.02-.02-.05-.02-.08-.02-.01 0-.02 0-.03 0-.06.02-.0999.07-.0999.13 0 .34-.2201.7299-.4801.8799-.07.04-.1299.06-.1899.06-.16 0-.1701-.18-.1701-.26 0 0 0 0 0-.02 0-.05-.02-.0999-.06-.1299-.03-.02-.05-.03-.08-.03-.02 0-.03-.0001-.04.01 0 0-.06.0699-.06.1199v.0401c0 .31-.2199.68-.4799.83-.07.04-.13.06-.19.06-.16 0-.17-.1801-.17-.2601 0-.05-.0201-.0999-.0601-.1299-.03-.02-.0499-.03-.0799-.03-.02 0-.0301-.0001-.0401.0099-.04.02-.1.0901-.1.1301 0 .3-.22.6899-.48.8499-.07.04-.13.06-.19.06-.16 0-.17-.18-.17-.26 0-.04-.02-.08-.05-.1-.02-.02-.0499-.03-.0799-.03-.01 0-.0201 0-.0301 0-.06.02-.1.07-.1.13 0 .34-.2199.7301-.4799.8801-.07.04-.13.06-.19.06-.15 0-.17-.18-.17-.26 0 0 0-.01 0-.02 0-.05-.0201-.1001-.0601-.1301-.03-.01-.0499-.03-.0799-.03-.02 0-.0301 0-.0401.01 0 0-.06.07-.06.11v.0401c0 .31-.2199.68-.4799.83-.07.04-.1301.06-.1801.06z" fill="#063abe"/><path d="m35.98 71.94 3.3 2.99c-.04.24-.22.53-.42.65-.07.04-.11.04-.12.04-.05 0-.05-.13-.05-.14 0-.09-.05-.17-.13-.21-.04-.02-.08-.03-.12-.03-.05 0-.09.01-.13.04-.08.05-.12.16-.12.26 0 .26-.2.6-.42.74-.07.04-.11.04-.12.04-.05 0-.05-.13-.05-.14 0 0 0-.02 0-.03 0-.09-.04-.18-.12-.23-.04-.02-.08-.04-.13-.04s-.09.01-.13.04c-.08.05-.13.15-.12.25v.01c0 .26-.2.6-.42.73-.07.04-.11.04-.12.04-.05 0-.05-.13-.05-.16 0-.09-.06-.17-.14-.21-.03-.02-.08-.03-.12-.03-.05 0-.11.02-.16.04-.08.04-.12.13-.12.22 0 .26-.2.6-.42.74-.07.04-.11.04-.12.04-.05 0-.05-.13-.05-.14 0-.09-.05-.17-.13-.21-.04-.02-.08-.03-.12-.03-.05 0-.09.01-.13.04-.08.05-.12.16-.12.26 0 .26-.2.6-.42.74-.07.04-.11.04-.12.04-.05 0-.05-.13-.05-.14 0 0 0-.02 0-.03 0-.09-.04-.18-.12-.23-.04-.02-.08-.04-.13-.04s-.09.01-.13.04c-.08.05-.13.15-.12.25v.01c0 .26-.2.6-.42.73-.07.04-.11.04-.12.04-.05 0-.05-.13-.05-.16 0-.09-.05-.17-.13-.22l-3.41-3.29 6.32-3.29m.04-.32-6.78 3.53 3.7 3.57h.01v.03c0 .24.12.39.3.39.07 0 .16-.03.25-.08.3-.18.54-.59.54-.94 0 .24.12.38.3.38.07 0 .16-.03.25-.08.3-.18.55-.6.55-.95 0-.02 0-.03 0-.04 0 .24.12.39.3.39.07 0 .16-.03.25-.08.3-.18.55-.6.55-.95l.04-.02v.04c0 .24.12.39.3.39.07 0 .16-.03.25-.08.3-.18.54-.59.54-.94 0 .24.12.38.3.38.07 0 .16-.03.25-.08.3-.18.55-.6.55-.95 0-.02 0-.03 0-.04 0 .24.12.39.3.39.07 0 .16-.03.25-.08.3-.18.55-.6.55-.95 0 0 0-.01 0-.02l-3.52-3.18zm1.33 4.53s0-.02 0-.03zm-3.31 1.95s0-.02 0-.03z" fill="#00208a"/><path d="m46.1299 71.6101c-.16 0-.17-.18-.17-.26 0-.04-.02-.1-.05-.12l-3.29-3.17 6.3-3.35 3.39 2.76c-.02.31-.23.66-.48.81-.07.04-.13.06-.18.06-.16 0-.17-.18-.17-.26 0-.04-.02-.08-.05-.1-.02-.01-.05-.02-.07-.02-.01 0-.03 0-.04 0-.05.02-.09.07-.09.13 0 .34-.22.73-.48.88-.07.04-.13.06-.19.06-.16 0-.17-.18-.17-.26 0 0 0 0 0-.02 0-.05-.02-.1-.06-.13-.02-.02-.05-.03-.08-.03-.02 0-.03 0-.05.01 0 0-.06.07-.06.12v.04c0 .31-.22.68-.48.83-.07.04-.13.06-.19.06-.16 0-.17-.18-.17-.26 0-.05-.02-.1-.06-.13-.03-.02-.05-.03-.08-.03-.02 0-.03 0-.04.01-.04.02-.1.09-.1.13 0 .3-.22.69-.48.85-.07.04-.13.06-.19.06-.16 0-.17-.18-.17-.26 0-.04-.02-.09-.06-.11-.02-.01-.04-.02-.06-.02s-.04 0-.06.02c-.04.02-.07.07-.07.12 0 .34-.22.73-.48.88-.07.04-.13.06-.18.06-.16 0-.17-.18-.17-.26 0 0 0 0 0-.01 0-.05-.02-.11-.06-.13-.03-.02-.06-.03-.08-.03-.01 0-.03 0-.04.01 0 0-.06.07-.06.12v.04c0 .31-.22.68-.48.83-.07.04-.13.06-.19.06z" fill="#063abe"/><path d="m48.8999 64.8601 3.27 2.67c-.04.24-.22.52-.42.64-.07.04-.11.04-.12.04-.05 0-.05-.13-.05-.14 0-.09-.05-.17-.13-.21-.04-.02-.08-.03-.12-.03-.05 0-.09.01-.13.04-.08.05-.12.16-.12.26 0 .26-.2.6-.42.74-.07.04-.11.04-.12.04-.05 0-.05-.13-.05-.14 0 0 0-.02 0-.03 0-.09-.04-.18-.12-.23-.04-.02-.08-.04-.13-.04s-.09.01-.13.04c-.08.05-.13.15-.12.25v.01c0 .26-.2.6-.42.73-.07.04-.11.04-.12.04-.05 0-.05-.13-.05-.16 0-.09-.06-.17-.14-.21-.03-.02-.08-.03-.12-.03-.05 0-.11.02-.16.04-.08.04-.12.13-.12.22 0 .26-.2.6-.42.74-.07.04-.11.04-.12.04-.05 0-.05-.13-.05-.14 0-.09-.05-.17-.13-.21-.04-.02-.08-.03-.12-.03-.05 0-.09.01-.13.04-.08.05-.12.16-.12.26 0 .26-.2.6-.42.74-.07.04-.11.04-.12.04-.05 0-.05-.13-.05-.14 0 0 0-.02 0-.03 0-.09-.04-.18-.12-.23-.04-.02-.08-.04-.13-.04s-.09.01-.13.04c-.08.05-.12.15-.12.25v.01c0 .26-.2.6-.42.73-.07.04-.11.04-.12.04-.05 0-.05-.13-.05-.16 0-.09-.05-.17-.13-.22l-3.13-3.02 6.07-3.23m.03-.32-6.52 3.47 3.42 3.3h.01v.03c0 .24.12.39.3.39.07 0 .16-.03.25-.08.3-.18.54-.59.54-.94 0 .24.12.38.3.38.07 0 .16-.03.25-.08.3-.18.55-.6.55-.95 0-.02 0-.03 0-.04 0 .24.12.39.3.39.07 0 .16-.03.25-.08.3-.18.55-.6.55-.95l.04-.02v.04c0 .24.12.39.3.39.07 0 .16-.03.25-.08.3-.18.54-.59.54-.94 0 .24.12.38.3.38.07 0 .16-.03.25-.08.3-.18.55-.6.55-.95 0-.02 0-.03 0-.04 0 .24.12.39.3.39.07 0 .16-.03.25-.08.3-.18.55-.6.55-.95 0 0 0-.01 0-.02l-3.5-2.85zm1.31 4.19s0-.02 0-.03zm-3.32 1.96s0-.02 0-.03z" fill="#00208a"/><path d="m49.6299 54.88 20.8-11.16v1.37l-20.8 11.16z" fill="#063abe"/><path d="m70.3 43.92v1.09l-20.55 11.03v-1.09zm.25-.41-21.05 11.3v1.65l21.05-11.3z" fill="#00208a"/><path d="m36.4099 48.97 13.09 7.52v5.27l-13.09-7.51z" fill="#6a89d8" stroke="#00208a" stroke-linejoin="round" stroke-width=".25"/><path d="m49.5 56.49 22.31-11.97v5.27l-22.31 11.97z" fill="#fff" stroke="#00208a" stroke-linejoin="round" stroke-width=".25"/><path d="m37.1499 47.71 12.35 7.09v1.66l-12.35-7.09z" fill="#063abe" stroke="#00208a" stroke-linejoin="round" stroke-width=".25"/><path d="m49.4999 44.6v10.32l-13.09-7.51v-10.32z" fill="#6a89d8" stroke="#00208a" stroke-linejoin="round" stroke-width=".25"/><path d="m71.82 32.63v10.32l-22.32 11.97v-10.32z" fill="#fff" stroke="#00208a" stroke-linejoin="round" stroke-width=".25"/><path d="m49.83 44.53v17.19l-22.31 11.97v-17.19z" fill="#fff" stroke="#00208a" stroke-linejoin="round" stroke-width=".25"/><path d="m27.52 66.68 22.31-11.92v1.65l-22.31 11.93z" fill="#063abe" stroke="#00208a" stroke-linejoin="round" stroke-width=".25"/><path d="m50 48.9599 21.76-11.52v1.42l-21.76 11.52z" fill="#063abe"/><path d="m71.6399 37.64v1.14l-21.51 11.39v-1.14zm.25-.41-22.01 11.65v1.71l22.01-11.65z" fill="#00208a"/><path d="m27.6401 61.1999 21.93-12.01v1.42l-21.93 12.01z" fill="#063abe"/><g fill="#00208a"><path d="m49.44 49.4v1.14l-21.67 11.87v-1.14zm.25-.42-22.17 12.15v1.71l22.17-12.15z"/><path d="m55.1499 36.76v-1.68l-1.53.81v1.67z"/><path d="m57.1599 34.03-1.53.8v1.67l1.53-.8z"/><path d="m55.1499 33.08v-1.67l-1.53.8v1.68z"/><path d="m57.1599 32.02v-1.67l-1.53.8v1.68z"/><path d="m55.6299 27.47v1.6801l1.53-.8101v-1.67z"/><path d="m59.1799 34.6v-1.63l-1.53.8v1.67l1.59-.83z"/><path d="m53.6199 30.21 1.53-.81v-1.67l-1.53.8z"/><path d="m59.6599 30.71 1.77-.94v-1.67l-1.77.93z"/><path d="m57.6499 30.09v1.68l1.53-.81v-1.67z"/><path d="m53.1299 36.14-1.77.94v1.67l1.77-.93z"/><path d="m59.6599 25.36v1.67l1.77-.94v-1.67z"/><path d="m59.6599 34.38 1.77-.93v-1.67l-1.77.93z"/><path d="m53.1299 32.47-1.77.93v1.67l1.77-.93z"/><path d="m57.6499 26.42v1.67l1.53-.81v-1.67z"/><path d="m53.1299 28.79-1.77.93v1.67l1.77-.93z"/><path d="m65.9799 31.19v-1.67l-1.5299.8v1.68z"/><path d="m68 28.46-1.54.81v1.67l1.54-.81z"/><path d="m65.9799 27.51v-1.67l-1.5299.81v1.67z"/><path d="m68 26.45v-1.67l-1.54.81v1.67z"/><path d="m66.46 21.91v1.67l1.54-.8v-1.68z"/><path d="m70.01 29.04v-1.64l-1.53.81v1.67l1.59-.84z"/><path d="m64.45 24.64 1.5299-.8v-1.68l-1.5299.81z"/><path d="m68.48 24.53v1.67l1.53-.81v-1.67z"/><path d="m63.9699 30.58-1.78.93v1.68l1.78-.94z"/><path d="m63.9699 26.9-1.78.93v1.68l1.78-.94z"/><path d="m68.48 20.85v1.67l1.53-.8v-1.68z"/><path d="m63.9699 23.22-1.78.93v1.68l1.78-.93z"/></g><path d="m27.52 66.7 21.05-11.3v1.66l-21.05 11.29z" fill="#063abe" stroke="#00208a" stroke-linejoin="round" stroke-width=".25"/><path d="m49.8299 44.51-22.32 11.97-13.09-7.52 22.32-11.97z" fill="#ccedd3" stroke="#00208a" stroke-linecap="round" stroke-linejoin="round" stroke-width=".25"/><path d="m14.4299 60.87 13.09 7.52v5.27l-13.09-7.52z" fill="#6a89d8" stroke="#00208a" stroke-linejoin="round" stroke-width=".25"/><path d="m15.1699 59.61 12.35 7.09v1.65l-12.35-7.09z" fill="#063abe" stroke="#00208a" stroke-linejoin="round" stroke-width=".25"/><path d="m18.6099 51.32-4.19-2.36 11.35-6.07 4.41 2.49z" fill="#ccedd3" stroke="#00208a" stroke-linecap="round" stroke-linejoin="round" stroke-width=".25"/><path d="m30.23 50.4301-6.76 3.67-4.76-2.8 6.75-3.49z" fill="#99dca6" stroke="#00208a" stroke-linecap="round" stroke-linejoin="round" stroke-width=".25"/><path d="m30.18 45.38-4.41-2.49 10.9-5.81 4.16 2.33z" fill="#99dca6" stroke="#00208a" stroke-linecap="round" stroke-linejoin="round" stroke-width=".25"/><path d="m36.3699 39.09s-.1499.18-.3399.18-.3401-.18-.3401-.18v-1.62h.69v1.62z" fill="#00208a"/><path d="m35.9397 37.58c-1.5 0-2.72-1.51-2.72-3.37s2.17-4.48 2.61-4.48c.48 0 2.84 2.59 2.84 4.48s-1.22 3.37-2.72 3.37z" fill="#ccedd3"/><path d="m35.8298 29.85c.49.09 2.7101 2.58 2.7101 4.36s-1.1701 3.25-2.6001 3.25-2.5999-1.46-2.5999-3.25c0-1.86 2.06-4.26 2.48-4.36m.0099-.25c-.55 0-2.7299 2.67-2.7299 4.61 0 1.93 1.27 3.5 2.85 3.5 1.57 0 2.85-1.57 2.85-3.5s-2.41-4.61-2.96-4.61z" fill="#00208a"/><path d="m27.5098 56.48-4.18-2.41 11.38-6.09 4.35 2.3z" fill="#ccedd3" stroke="#00208a" stroke-linecap="round" stroke-linejoin="round" stroke-width=".25"/><path d="m39.06 50.28-4.35-2.2999 10.89-5.8101 4.16 2.33z" fill="#99dca6" stroke="#00208a" stroke-linecap="round" stroke-linejoin="round" stroke-width=".25"/><path d="m24.9199 45.01s-.13.15-.28.15-.28-.15-.28-.15v-1.31h.56z" fill="#00208a"/><path d="m24.5701 43.77c-1.2 0-2.18-1.21-2.18-2.71 0-1.52 1.73-3.6 2.09-3.6s2.27 2.09 2.27 3.6-.98 2.71-2.18 2.71z" fill="#99dca6"/><path d="m24.48 37.59c.39.13 2.15 2.07 2.15 3.47 0 .7-.22 1.35-.62 1.84-.39.48-.9.74-1.44.74-1.13 0-2.05-1.16-2.05-2.58 0-1.44 1.6-3.35 1.96-3.47zm0-.25c-.45 0-2.21 2.16-2.21 3.73s1.03 2.83 2.3 2.83 2.3-1.27 2.3-2.83-1.95-3.73-2.4-3.73z" fill="#00208a"/><path d="m17.3598 48.64s-.13.15-.28.15-.28-.15-.28-.15v-1.31h.56z" fill="#00208a"/><path d="m17.0101 47.4c-1.2 0-2.18-1.21-2.18-2.71 0-.65.33-1.52.92-2.38.55-.81 1.05-1.22 1.17-1.22.34 0 2.27 2.09 2.27 3.6 0 .73-.23 1.41-.65 1.92-.41.5-.95.78-1.53.78z" fill="#99dca6"/><path d="m16.92 41.22c.39.13 2.15 2.07 2.15 3.47 0 .7-.22 1.35-.62 1.84-.39.48-.9.74-1.44.74-1.13 0-2.05-1.16-2.05-2.58 0-1.44 1.6-3.35 1.96-3.47zm0-.26c-.45 0-2.21 2.16-2.21 3.73 0 1.56 1.03 2.83 2.3 2.83s2.3-1.27 2.3-2.83-1.95-3.73-2.4-3.73z" fill="#00208a"/><path d="m64.8699 15.9s-.15.18-.34.18-.34-.18-.34-.18v-1.62h.69v1.62z" fill="#00208a"/><path d="m64.4397 14.39c-1.5 0-2.72-1.51-2.72-3.37 0-1.85997 2.17-4.47996 2.61-4.47996.48 0 2.84 2.58999 2.84 4.47996 0 1.89-1.22 3.37-2.72 3.37z" fill="#ccedd3"/><path d="m64.3298 6.67004c.49.09 2.71 2.58 2.71 4.35996 0 1.78-1.17 3.25-2.6 3.25s-2.6-1.46-2.6-3.25c0-1.78996 2.0601-4.25996 2.4801-4.35996m.0099-.25c-.55 0-2.7299 2.67-2.7299 4.60996 0 1.94 1.2699 3.5 2.8499 3.5s2.85-1.57 2.85-3.5c0-1.92996-2.41-4.60996-2.96-4.60996z" fill="#00208a"/><path d="m57.7899 20.64s-.15.18-.34.18-.34-.18-.34-.18v-1.62h.69v1.62z" fill="#00208a"/><path d="m57.3699 19.13c-1.5 0-2.72-1.51-2.72-3.37s2.17-4.48 2.61-4.48c.48 0 2.84 2.59 2.84 4.48s-1.22 3.37-2.72 3.37z" fill="#99dca6"/><path d="m57.25 11.4c.49.09 2.71 2.58 2.71 4.36s-1.17 3.25-2.6 3.25-2.6-1.46-2.6-3.25 2.06-4.26 2.48-4.36m.01-.25c-.55 0-2.73 2.67-2.73 4.61s1.27 3.5 2.85 3.5 2.85-1.57 2.85-3.5-2.41-4.61-2.96-4.61z" fill="#00208a"/><path d="m50.8199 24.53s-.15.18-.34.18-.34-.18-.34-.18v-1.62h.69v1.62z" fill="#00208a"/><path d="m50.3899 23.0201c-1.5 0-2.72-1.51-2.72-3.37s2.17-4.4801 2.61-4.4801c.48 0 2.84 2.5901 2.84 4.4801s-1.22 3.37-2.72 3.37z" fill="#ccedd3"/><path d="m50.28 15.29c.49.09 2.71 2.58 2.71 4.36s-1.17 3.25-2.6 3.25-2.6-1.46-2.6-3.25 2.06-4.26 2.48-4.36m0-.25c-.55 0-2.73 2.67-2.73 4.61s1.27 3.5 2.85 3.5c1.57 0 2.85-1.57 2.85-3.5s-2.41-4.61-2.96-4.61z" fill="#00208a"/><path d="m58.1299 9.48999s-.15.17999-.34.17999-.3399-.17999-.3399-.17999v-1.61999h.69v1.61999z" fill="#00208a"/><path d="m57.7 7.98001c-1.5 0-2.72-1.51001-2.72-3.37001s2.17-4.479995 2.61-4.479995c.48 0 2.84 2.589995 2.84 4.479995s-1.22 3.37001-2.72 3.37001z" fill="#99dca6"/><path d="m57.5899.260002c.49.09 2.71 2.580008 2.71 4.360008s-1.17 3.25-2.6 3.25-2.6-1.46-2.6-3.25 2.06-4.260008 2.48-4.360008m.01-.260002c-.55 0-2.73 2.67-2.73 4.61s1.27 3.5 2.85 3.5 2.85-1.57 2.85-3.5-2.41-4.61-2.96-4.61z" fill="#00208a"/><path d="m51.0499 14.23s-.15.18-.34.18-.34-.18-.34-.18v-1.62h.69v1.62z" fill="#00208a"/><path d="m50.6299 12.72c-1.5 0-2.72-1.51-2.72-3.37001 0-1.86 2.17-4.47999 2.61-4.47999.48 0 2.84 2.58999 2.84 4.47999 0 1.89001-1.22 3.37001-2.72 3.37001z" fill="#ccedd3"/><path d="m50.51 4.98999c.49.09 2.71 2.58 2.71 4.36 0 1.78001-1.17 3.25001-2.6 3.25001s-2.6-1.46-2.6-3.25001c0-1.79 2.06-4.26 2.48-4.36m.01-.25c-.55 0-2.73 2.67-2.73 4.61 0 1.94001 1.27 3.50001 2.85 3.50001s2.85-1.57 2.85-3.50001c0-1.93-2.41-4.61-2.96-4.61z" fill="#00208a"/><path d="m44.0799 18.12s-.15.18-.34.18-.34-.18-.34-.18v-1.62h.69v1.62z" fill="#00208a"/><path d="m43.6497 16.61c-1.5 0-2.72-1.51-2.72-3.37s2.17-4.47999 2.61-4.47999c.48 0 2.84 2.58999 2.84 4.47999s-1.22 3.37-2.72 3.37z" fill="#ccedd3"/><path d="m43.5398 8.88c.49.09 2.71 2.58 2.71 4.36s-1.17 3.25-2.6 3.25-2.6-1.46-2.6-3.25 2.06-4.26 2.48-4.36m.01-.25c-.55 0-2.73 2.67-2.73 4.61s1.27 3.5 2.85 3.5c1.57 0 2.85-1.57 2.85-3.5s-2.41-4.61-2.96-4.61z" fill="#00208a"/><path d="m30.1699 42.76s-.13.15-.28.15-.28-.15-.28-.15v-1.31h.56z" fill="#00208a"/><path d="m29.8201 41.52c-1.2 0-2.18-1.21-2.18-2.71s1.73-3.6 2.09-3.6 2.27 2.09 2.27 3.6c0 1.49-.98 2.71-2.18 2.71z" fill="#99dca6"/><path d="m29.73 35.34c.39.13 2.15 2.07 2.15 3.47 0 .7-.22 1.35-.62 1.84-.39.48-.9.74-1.44.74-1.13 0-2.05-1.16-2.05-2.58 0-1.44 1.6-3.35 1.96-3.47zm0-.25c-.45 0-2.21 2.16-2.21 3.73 0 1.56 1.03 2.83 2.3 2.83s2.3-1.27 2.3-2.83-1.95-3.73-2.4-3.73z" fill="#00208a"/><path d="m28.96 52.5101c-.02-.05-.08-.11-.14-.12-.03 0-.05 0-.06.01l-.22.25v-2.84h-.51v4.64s.03.08.08.1c.1.06.26.06.36 0 .05-.03.07-.07.07-.1v-1.42l.41-.46s.02-.04 0-.06z" fill="#002484"/><path d="m29.1 51.7801c-.21 0-.41-.03-.6-.1-.5-.18-.92-.26-1.31-.26-.28 0-.57-.18-.73-.44-.08-.14-.18-.41 0-.73.02-.04.02-.1 0-.14-.65-.85-.46-2-.07-2.79.45-.91 1.19-1.5 1.89-1.5.31 0 .61.12.89.35.22.19.53.31.86.45.53.22 1.07.44 1.25.92.14.36.06.82-.24 1.43-.02.03-.02.07 0 .1.24.61.18 1.24-.18 1.77-.39.57-1.07.94-1.75.94z" fill="#2ea339"/><path d="m28.2599 45.94c.28 0 .56.1101.81.3201.24.2.56.33.9.47.5.21 1.02.4199 1.19.8499.12.32.04.77-.23 1.33-.03.06-.03.14 0 .2.23.57.17 1.1501-.17 1.6501-.37.54-1.01.89-1.64.89-.19 0-.38-.0301-.56-.1001-.52-.18-.95-.27-1.35-.27-.24 0-.49-.15-.62-.37-.07-.11-.15-.34 0-.6.05-.09.04-.2-.02-.28-.62-.8-.43-1.8999-.06-2.6599.43-.87 1.12-1.4301 1.78-1.4301m-.03-.25c-1.63 0-3.15 2.8801-1.92 4.4901-.37.65.21 1.3499.84 1.3499.44 0 .86.11 1.27.25.21.07.43.11.65.11 1.36 0 2.65-1.3699 2.05-2.8799 1.13-2.33-1.11-2.2701-1.91-2.9501-.31-.26-.64-.3799-.97-.3799z" fill="#002484"/><path d="m27.5199 56.51v10.23l-13.09-7.52v-10.22z" fill="#6a89d8" stroke="#00208a" stroke-linejoin="round" stroke-width=".25"/><path d="m27.5 73.63 22.08-11.85v2.59l-22.08 11.85z" fill="#fff" stroke="#00208a" stroke-linejoin="round" stroke-width=".25"/><path d="m82.5799 60.39v-5.77l-2.13 1.21-.02 5.79z" fill="#00208a"/><path d="m90.12 55.9301v-5.7601l-2.1401 1.2001-.0199 5.7899z" fill="#00208a"/><path d="m64.17 69.18v-5.77l-2.14 1.2-.02 5.8z" fill="#00208a"/><path d="m37.16 92.83c-.3-.95-1.93-1.06-2.73-.77-1.55.57-.92 1.73.44 1.93.58.09 1.22.03 1.75-.25.32-.17.64-.51.55-.9z" fill="#fff" stroke="#002484" stroke-linejoin="round" stroke-width=".25"/><path d="m37.18 92.9299c.1.95-1.07 1.25-1.82 1.26-.73 0-1.92-.3-1.83-1.23.06.86 1.32 1.11 2.02 1.06.63-.04 1.62-.32 1.63-1.09z" fill="#718bd4" stroke="#002484" stroke-linejoin="round" stroke-width=".25"/><path d="m35.6001 94.1699v1.67.01.02l-.01.01-.01.01-.01.02-.01.01-.02.01-.01.01-.02.01-.02.01h-.02l-.02.01h-.03l-.02.01h-.02-.03-.02-.02l-.03-.01h-.02l-.02-.01h-.02l-.02-.01-.02-.01-.02-.01-.01-.01-.01-.01-.02-.01-.01-.02v-.01l-.01-.01v-.02-1.67.01h.01.01.02.01.01.02.02.02.02.02.02.03l.02.01h.02.02.01.02l.02-.01h.03.02.02.02.02.01.02.01.01.01.01z" fill="#718bd4" stroke="#002484" stroke-linejoin="round" stroke-width=".25"/><path d="m28.34 94.3099c-.3-.95-1.93-1.0599-2.73-.7699-1.55.57-.92 1.7299.44 1.9299.58.09 1.22.03 1.75-.25.32-.17.64-.5099.55-.8999z" fill="#fff" stroke="#002484" stroke-linejoin="round" stroke-width=".25"/><path d="m28.3599 94.4099c.1.95-1.07 1.25-1.82 1.26-.73 0-1.92-.3-1.83-1.23.06.86 1.32 1.11 2.02 1.06.63-.04 1.62-.32 1.63-1.09z" fill="#718bd4" stroke="#002484" stroke-linejoin="round" stroke-width=".25"/><path d="m26.79 95.6499v1.67l-.01.01v.02l-.01.01-.01.01-.01.02-.01.01-.02.01-.01.01-.02.01h-.02l-.02.01-.02.01h-.02l-.03.01h-.02-.02-.03-.02l-.02-.01h-.03l-.02-.01h-.02l-.02-.01-.02-.01-.01-.01-.02-.01-.01-.01-.01-.01-.01-.02-.01-.01-.01-.01v-.02-1.67h.01l.01.01h.01.01.01.02.01.02.02.02.02.03.02.02.03l.02.01.02-.01h.03.02.02.02.02.02.01.01.01.01.01.01l.01-.01z" fill="#718bd4" stroke="#002484" stroke-linejoin="round" stroke-width=".25"/><path d="m33.0599 95.3699c.1.95-1.07 1.25-1.82 1.26-.73 0-1.92-.3-1.83-1.23.06.86 1.32 1.11 2.02 1.06.63-.04 1.62-.32 1.63-1.09z" fill="#718bd4" stroke="#002484" stroke-linejoin="round" stroke-width=".25"/><path d="m31.49 96.6099v1.67.01l-.01.02v.01l-.01.01-.01.02-.02.01-.01.01-.02.01-.02.01-.02.01h-.02l-.02.01h-.02l-.02.01h-.03-.02-.02-.03l-.02-.01h-.02l-.03-.01h-.02l-.02-.01-.01-.01-.02-.01-.02-.01-.01-.01-.01-.01-.01-.02-.01-.01v-.01l-.01-.02v-1.67h.01v.01h.01.01.01.01.02.02.01.01.01.02.03.02.02l.03.01h.02.02l.03-.01h.02.02.02.02.02.02.02.01.02.01.01z" fill="#123eb7"/><path d="m31.49 91.2799v4.1.01l-.01.02v.01l-.01.01-.01.01-.02.02-.01.01-.02.01-.02.01h-.02l-.02.01-.02.01h-.02-.02l-.03.01h-.02-.02-.03l-.02-.01h-.02l-.03-.01h-.02l-.02-.01-.01-.01-.02-.01-.02-.01-.01-.01-.01-.01-.01-.02-.01-.01v-.01l-.01-.02v-4.1h.01.01.01.01l.01.01h.02.02.01.01.01l.02.01h.03.02.02.03.02.02.03.02.02l.02-.01h.02.02.02.02.01l.02-.01h.01.01z" fill="#123eb7"/><path d="m33.0499 95.2699c-.3-.95-1.93-1.06-2.73-.77-1.55.57-.92 1.73.44 1.93.58.09 1.22.03 1.75-.25.32-.17.64-.51.55-.9z" fill="#fff" stroke="#002484" stroke-linejoin="round" stroke-width=".25"/><path d="m38.39 86.15v-.06l-3.5601-2.05h-.1899l-4.7901-.46-4.3999 1.33-2.25 2.54.83 2.79 3.5399 2.05 4.9.52 4.44-1.3 2.25-2.57-.8-2.79z" fill="#eff2f9"/><g mask="url(#a)"><g fill="#718bd4"><g stroke="#002484" stroke-linecap="round" stroke-linejoin="round" stroke-width=".25"><path d="m31.1799 83.89 3.65.2 3.54 2.04z"/><path d="m25.46 84.96 5.72-1.07-1.33-.26z"/><path d="m24.04 90.28 7.16-6.45-7.99 3.66z"/></g><path d="m27.7598 92.2199 3.38-7.93 1.2 8.42z"/></g><path d="m31.0698 84.75 1.12 7.81-4.25-.45zm.13-.92-3.61 8.5 4.9.52z" fill="#002484"/><path d="m39.1799 88.98-7.9799-5.15 5.7299 7.72z" fill="#718bd4" stroke="#002484" stroke-linecap="round" stroke-linejoin="round" stroke-width=".25"/></g><path d="m38.39 86.15v-.06l-3.5601-2.05h-.1899l-4.7901-.46-4.3999 1.33-2.25 2.54.83 2.79 3.5399 2.05 4.9.52 4.44-1.3 2.25-2.57-.8-2.79z" stroke="#002484" stroke-linecap="round" stroke-linejoin="round" stroke-width=".25"/><path d="m159.85 69.74-4.35 8.41 9.23-5.33z" fill="#686a6b"/><path d="m159.85 69.74-4.35 8.41 9.23-5.33z" style="fill-rule:evenodd;clip-rule:evenodd;fill:#cdd8f2;stroke:#00208a;stroke-width:.25;stroke-linejoin:round"/><path d="m164.18 73.11-.01.01v-.01z" style="fill-rule:evenodd;clip-rule:evenodd;fill:#fff;stroke:#00208a;stroke-width:.25;stroke-linejoin:round"/><path d="m144.97 71.4401.02 14.54 10.46 6.29-.02-14.54z" fill="#cdd8f2" stroke="#00208a" stroke-linejoin="round" stroke-width=".25"/><path d="m164.17 73.11v.0101l-.09 13.9299-8.66 5.2201.02-14.1001.06-.0199 4.01-7.97z" style="fill-rule:evenodd;clip-rule:evenodd;fill:#fff;stroke:#00208a;stroke-width:.25;stroke-linejoin:round"/><path d="m160.25 69.98-11.27-6.59-4.49 8.49 11.26 6.59z" style="fill-rule:evenodd;clip-rule:evenodd;fill:#6a89d8;stroke:#00208a;stroke-width:.25;stroke-linejoin:round"/><path d="m141.21 74.38 5.07 10.53 9.06-3.44-10.93-6.45z" style="fill-rule:evenodd;clip-rule:evenodd;fill:#cdd8f2;stroke:#00208a;stroke-width:.25;stroke-linejoin:round"/><path d="m152.23 80.8201-4.05 4.65 7.16-4z" style="fill-rule:evenodd;clip-rule:evenodd;fill:#cdd8f2;stroke:#00208a;stroke-width:.25;stroke-linejoin:round"/><path d="m137.23 79.0701.03 10.76 10.88 6.38.02-10.72z" fill="#cdd8f2" stroke="#00208a" stroke-linejoin="round" stroke-width=".25"/><path d="m155.25 92.09-7.11 4.12.04-10.74 7.16-4z" style="fill-rule:evenodd;clip-rule:evenodd;fill:#fff;stroke:#00208a;stroke-width:.25;stroke-linejoin:round"/><path d="m152.23 80.82-11.02-6.44-4.01 4.66 11.02 6.45z" style="fill-rule:evenodd;clip-rule:evenodd;fill:#6a89d8;stroke:#00208a;stroke-width:.25;stroke-linejoin:round"/><path d="m134.02 78.4 5.07 10.53 9.07-3.43-10.94-6.46z" style="fill-rule:evenodd;clip-rule:evenodd;fill:#cdd8f2;stroke:#00208a;stroke-width:.25;stroke-linejoin:round"/><path d="m145.05 84.85-4.06 4.64 7.17-3.99z" style="fill-rule:evenodd;clip-rule:evenodd;fill:#cdd8f2;stroke:#00208a;stroke-width:.25;stroke-linejoin:round"/><path d="m130.05 83.09.02 10.76 10.93 6.43-.02-10.77z" fill="#cdd8f2" stroke="#00208a" stroke-linejoin="round" stroke-width=".25"/><path d="m148.14 96.21-7.17 4.07.02-10.79 7.16-4z" style="fill-rule:evenodd;clip-rule:evenodd;fill:#fff;stroke:#00208a;stroke-width:.25;stroke-linejoin:round"/><path d="m145.05 84.85-11.03-6.45-4.01 4.67 11.03 6.44z" style="fill-rule:evenodd;clip-rule:evenodd;fill:#6a89d8;stroke:#00208a;stroke-width:.25;stroke-linejoin:round"/><path d="m147.54 96.37v-5.77l-2.13 1.2-.02 5.8z" fill="#00208a"/><path d="m163.25 87.54v-5.77l-2.13 1.2-.02 5.79z" fill="#00208a"/><path d="m159.8 82.73-2.54 1.51v3.27l2.54-1.47z" fill="#f1f4fe" stroke="#002484" stroke-linejoin="round" stroke-width=".25"/><path d="m163.05 74.42-2.54 1.5v3.27l2.54-1.4599z" fill="#f1f4fe" stroke="#002484" stroke-linejoin="round" stroke-width=".25"/><path d="m159.58 76.42-2.54 1.5101v3.2699l2.54-1.4599z" fill="#f1f4fe" stroke="#002484" stroke-linejoin="round" stroke-width=".25"/><path d="m154.28 85.5801-2.54 1.51v3.27l2.54-1.47z" fill="#f1f4fe" stroke="#002484" stroke-linejoin="round" stroke-width=".25"/><path d="m144.56 90.42-2.54 1.5v3.27l2.54-1.4599z" fill="#f1f4fe" stroke="#002484" stroke-linejoin="round" stroke-width=".25"/><path d="m136.06 89.75 2.54 1.51v3.27l-2.54-1.46z" fill="#f1f4fe" stroke="#002484" stroke-linejoin="round" stroke-width=".25"/><path d="m131.98 87.37 2.54 1.5v3.27l-2.54-1.46z" fill="#f1f4fe" stroke="#002484" stroke-linejoin="round" stroke-width=".25"/><path d="m134.1 97.1-.1-.02.09-.05-.05-.21-.1-.02.08-.05-.04-.2-.1-.03.08-.04-.05-.21-.1-.02.09-.05-.05-.21-.15-.03-4.63 2.68.04.21.1.02-.08.05.05.2.1.03-.09.04.05.21.1.02-.08.05.04.2.1.03-.08.05.05.2.15.04 4.63-2.69z" fill="#000056" stroke="#000056" stroke-linejoin="round" stroke-width=".25"/><path d="m131.11 101.15s-.02-.09-.04-.1-1.43-.82-1.43-.82l-.16.09 1.39.8.08.06" fill="#000056"/><path d="m131.1 101.11s-.02-.03-.03-.05c-.01-.01-.02-.02-.03-.03l-1.39-.8-.38-1.7001s0-.01-.01-.02c0-.01-.02-.02-.04-.03-.05-.03-.12-.04-.15-.02l-.16.09s-.02.02-.01.03l.4 1.7801v1.39l.22.13.16-.09v-.95l1.06.61v1.14l.2.11.18-.08v-1.44s0-.04-.01-.06z" fill="#000056"/><path d="m129.59 100.58.16.1v-.16l-.16-.1z" fill="#000056"/><path d="m135.81 98.4199s-.02-.03-.03-.05c-.01-.01-.02-.02-.03-.03l-1.39-.8-.38-1.7s0-.01-.01-.02c0-.01-.02-.02-.04-.03-.05-.03-.12-.04-.15-.02l-.16.09s-.02.02-.01.03l.4 1.78v.21l-4.21 2.4401.17.1v.11l-.1.06v.16l.17.1.11-.06v.12l.17.1.11-.06v.12l.17.1.11-.06v.12l.17.1v-.16h.27l4.24-2.4401.1.06v1.14l.2.1101.18-.0801v-1.44s0-.04-.01-.06z" fill="#000056"/><path d="m126.05 105.21s-.24.32-.54.32-.54-.32-.54-.32v-2.84h1.09v2.84z" fill="#002484"/><path d="m125.37 102.66c-2.41 0-4.37-2.69-4.37-6.01s3.47-7.94 4.19-7.94c.77 0 4.55 4.59 4.55 7.94s-1.96 6.01-4.37 6.01z" fill="#abdab0"/><path d="m125.19 88.83c.62 0 4.43 4.38 4.43 7.82 0 1.58-.45 3.07-1.27 4.19-.8 1.09-1.86 1.69-2.98 1.69-2.34 0-4.25-2.64-4.25-5.88 0-3.44 3.5-7.81 4.07-7.82zm0-.25c-.87 0-4.32 4.68-4.32 8.07s2.01 6.13 4.5 6.13 4.5-2.74 4.5-6.13-3.8-8.07-4.68-8.07z" fill="#002484"/><path d="m119.01 109.19s-.27.35-.6.35-.6-.35-.6-.35v-3.1h1.19v3.1z" fill="#002484"/><path d="m118.27 106.41c-2.64 0-4.79-2.95-4.79-6.58s3.8-8.7 4.6-8.7c.85 0 4.99 5.03 4.99 8.7s-2.15 6.58-4.79 6.58z" fill="#abdab0"/><path d="m118.07 91.25c.73 0 4.87 4.98 4.87 8.58 0 1.74-.49 3.37-1.39 4.59-.88 1.2-2.04 1.86-3.28 1.86-2.57 0-4.67-2.9-4.67-6.45 0-1.55.72-3.62 1.97-5.67 1.18-1.93 2.24-2.9 2.51-2.9m-.01-.26c-.96 0-4.72 5.12-4.72 8.83 0 3.7 2.2 6.7 4.92 6.7s4.92-3 4.92-6.7-4.16-8.83-5.12-8.83z" fill="#002484"/></svg>