<svg fill="none" height="132" viewBox="0 0 159 132" width="159" xmlns="http://www.w3.org/2000/svg" xmlns:xlink="http://www.w3.org/1999/xlink"><mask id="a" height="16" maskUnits="userSpaceOnUse" width="12" x="81" y="33"><path d="m92.1201 33.9901s-1.75-.16-2.58.79-1.83 7.38-2.9 8.48c-1.65 1.7-5.07 3.13-5.07 3.13l.55 1.97c4.54-1.63 5.55-2.23 6.84-3.23s3.16-11.15 3.16-11.15z" fill="#fff"/></mask><mask id="b" height="19" maskUnits="userSpaceOnUse" width="11" x="72" y="50"><path d="m72.22 50.98s1.77-.07 2.76.85c1.31 1.2 2.3799 9.25 3.5299 10.43 1.5 1.69 3.5 3.76 3.5 3.76l-.9899 2.04c-1.4-1.35-3.7801-2.85-5.0101-5.16-2.76-5.2-3.7899-11.93-3.7899-11.93z" fill="#fff"/></mask><path d="m79.24 47.21-67.24 39.0199 67.09 38.7701 67.04-38.7701z" fill="#f5f5f7" stroke="#002484" stroke-miterlimit="10" stroke-width=".25"/><path d="m79.04 131.69 67.09-38.73v-6.74l-67.09 38.74z" fill="#d0d8f1" stroke="#002484" stroke-linejoin="round" stroke-width=".25"/><path d="m79.09 131.69-67.09-38.73v-6.74l67.09 38.74z" fill="#123eb7" stroke="#002484" stroke-linejoin="round" stroke-width=".25"/><path d="m79.6301 46.1702c-.35-.02.08.51.28.69-.14.05-.38.12-.38.12s-1.28-.02-1.39.22c-.09.18.5.23.88.32-.37.07-.83.18-.88.33-.06.18.4699.17.8499.2-.21.09-.3799.18-.3899.27-.05.26 1.07.01 1.71-.11.64-.13 1.07-.49 1.07-.49l.72-.12.05-1.16s-1.03.4-1.7.08c-.21-.13-.55-.34-.82-.36z" fill="#b66c23" stroke="#04005a" stroke-miterlimit="10" stroke-width=".25"/><path d="m90.6801 76.0301 1.47-.6.25-2.05-1.93.41z" fill="#00208a"/><path d="m90.5601 75.43s-.53 1.07-1.15 1.47c-2.29 1.45-1.86 1.55-1.93 1.83-.11.5 1.44.29 2.11-.03 2.11-1.01 2.09-1.41 2.09-1.41v.29s.77-.29.73-.76-.26-1.54-.26-1.54-.35.39-.95.39-.63-.24-.63-.24z" fill="#edf1f9" stroke="#04005a" stroke-miterlimit="10" stroke-width=".25"/><path d="m95.47 78.3902 1.48-.6.24-2.06-1.93.41z" fill="#00208a"/><path d="m92.1201 33.9901s-1.75-.16-2.58.79-1.83 7.38-2.9 8.48c-1.65 1.7-5.07 3.13-5.07 3.13l.55 1.97c4.54-1.63 5.55-2.23 6.84-3.23s3.16-11.15 3.16-11.15z" fill="#edf1f9"/><g mask="url(#a)"><path d="m89.33 39.6001c-.18.05-3.41 8.39-3.28 8.46s7.26 1.38 7.26 1.38l.14-9.02-4.11-.81z" fill="#cdd8f2"/></g><path d="m92.1201 33.9901s-1.75-.16-2.58.79-1.83 7.38-2.9 8.48c-1.65 1.7-5.07 3.13-5.07 3.13l.55 1.97c4.54-1.63 5.55-2.23 6.84-3.23s3.16-11.15 3.16-11.15z" stroke="#04005a" stroke-miterlimit="10" stroke-width=".25"/><path d="m97.84 52.0103-.26 24.49c-.01.62-.52 1.12-1.14 1.12h-1.58l-1.92-21.96-.27 18.42c0 .69-.56 1.24-1.24 1.24l-1.45.05-1.24-25.06s1.24 1.58 3.29 1.91 5.8-.22 5.8-.22z" fill="#00208a"/><path d="m89.36 39.4703c.09 1.99.2301 3.84.2301 3.84-.07 3.83-1.14 7.6-1.14 7.6s.49 1.31 4.18 2.74c4.05 1.57 5.46-1.64 5.46-1.64s.15-2.86-.35-7.24h-.0101l.1101-5.07s.11-.66-.37-1.96-3.08-2.97-3.08-2.97l-.4101-.06-1.4199-.92" fill="#edf1f9"/><path d="m89.36 39.4703c.09 1.99.2301 3.84.2301 3.84-.07 3.83-1.14 7.6-1.14 7.6s.49 1.31 4.18 2.74c4.05 1.57 5.46-1.64 5.46-1.64s.15-2.86-.35-7.24h-.0101l.1101-5.07s.11-.66-.37-1.96-3.08-2.97-3.08-2.97l-.4101-.06-1.4199-.92" stroke="#04005a" stroke-miterlimit="10" stroke-width=".25"/><path d="m94.5201 33.4402s-.18.97 0 1.61-.9501 1.22-1.9701 1.16-.95-.68-.98-1.45 2.9501-1.32 2.9501-1.32z" fill="#b66c23" stroke="#04005a" stroke-miterlimit="10" stroke-width=".25"/><path d="m93.2601 34.8302s-1.02.74-1.62.4c-1.06-.6-1.4-3.01-.96-4.44s3.59-.99 3.59-.99l.41 3.58" fill="#b66c23"/><path d="m93.2601 34.8302s-1.02.74-1.62.4c-1.06-.6-1.4-3.01-.96-4.44s3.59-.99 3.59-.99l.41 3.58" stroke="#04005a" stroke-miterlimit="10" stroke-width=".25"/><path d="m94.2201 32.1902-.25.72-.32.14v-1.71s-.41.61-1.44.77c-1.34.21-2.24-.82-2.24-.82s-.0901-1.1 1.2099-1.73c.78-.37 1.89-1.12 3-.56s.7301 1.05.7301 1.05 1.0599.44.2599 2.58c-.37.98-.7799 1.36-.7799 1.36l.08-1.49z" fill="#04005a"/><path d="m94.9 54.3003s1.27.77 1.9.82.77-.29.77-.29l-.57 2.92-2.99-1.19.9-2.26z" fill="#00208a"/><path d="m90.5601 75.4303s-.53 1.07-1.15 1.47c-2.29 1.45-1.86 1.55-1.93 1.83-.11.5 1.44.29 2.11-.03 2.11-1.01 2.09-1.41 2.09-1.41v.29s.77-.29.73-.76-.26-1.54-.26-1.54-.35.39-.95.39-.63-.24-.63-.24z" fill="#edf1f9" stroke="#04005a" stroke-miterlimit="10" stroke-width=".25"/><path d="m95.5901 78.2002 1.37-.56.23-1.91-1.79.39z" fill="#00208a"/><path d="m95.48 77.6402s-.4899.99-1.0699 1.36c-2.12 1.34-1.73 1.44-1.79 1.7-.11.46 1.34.27 1.96-.03 1.96-.94 1.94-1.31 1.94-1.31v.27s.71-.27.68-.71-.24-1.43-.24-1.43-.32.36-.88.36-.59-.22-.59-.22z" fill="#edf1f9" stroke="#04005a" stroke-miterlimit="10" stroke-width=".25"/><path d="m93.9601 32.6701c.04.19.14.47.14.47s.21-.06.29-.12c.21-.14.32-.51.25-.83s-.29-.45-.49-.31-.26.47-.2.79z" fill="#b66c23"/><path d="m94.81 54.7903c-.2.3.48.19.74.11-.02.15-.09.39-.09.39s-.66 1.09-.51 1.31c.11.17.46-.31.72-.59-.13.35-.26.8099-.16.9299.13.14.38-.32.6-.64-.03.22-.03.42.04.48.2.18.55-.91.77-1.53s.12-1.1799.12-1.1799l.26-.6801-.98-.64s-.18 1.0901-.79 1.5101c-.22.11-.57.3-.73.53z" fill="#b66c23" stroke="#04005a" stroke-miterlimit="10" stroke-width=".25"/><path d="m96.26 36.1802c2.13 1.23 3.15 4.67 3.68 7.94.58 3.59-2.35 9.76-2.35 9.76l-1.8-.73s1.69-5.38 1.57-7.66c0-1.63-.64-3.28-.64-3.28" fill="#edf1f9"/><path d="m96.26 36.1802c2.13 1.23 3.15 4.67 3.68 7.94.58 3.59-2.35 9.76-2.35 9.76l-1.8-.73s1.69-5.38 1.57-7.66c0-1.63-.64-3.28-.64-3.28" stroke="#04005a" stroke-miterlimit="10" stroke-width=".25"/><path d="m95.5601 31.6601s-.6.22-1.79.33-1.28.56-2.44.54-2.53-.29-2.8-.65.66-.7.74-.85-.0201-.44.2799-.81-.3599-.98.9501-1.97 2.26-.78 3.12-.58c0 0 .73.53.88.63.54.33.88 1 .9 1.46l.0199.46s.3901.25.2701.96c0 0 .21.38-.13.48z" fill="#f5c814" stroke="#04005a" stroke-miterlimit="10" stroke-width=".25"/><path d="m95.2001 30.2102s-.5799.3-1.4899.37-.53.48-.56.82.69.22 1.2.14 1.2099-.34 1.2099-.34.11-.68-.36-.98z" fill="#f5c814" stroke="#04005a" stroke-miterlimit="10" stroke-width=".25"/><path d="m94.0901 28.0103s-1.82.02-2.41.56c0 0-1.58.4499-1.18-.3201" stroke="#04005a" stroke-miterlimit="10" stroke-width=".25"/><path d="m89.28 31.03s.77.87 3.26.51z" fill="#f5c814"/><path d="m89.28 31.03s.77.87 3.26.51" stroke="#04005a" stroke-miterlimit="10" stroke-width=".25"/><path d="m60.9299 67.0701 20.4201 8.8 2.24-1.04-20.19-9.19z" fill="#3861cb" stroke="#00208a" stroke-miterlimit="10" stroke-width=".25"/><path d="m75.39 74.2303 20.42 8.81 2.24-1.05-20.19-9.18z" fill="#fffbf8" stroke="#002484" stroke-miterlimit="10" stroke-width=".25"/><path d="m83.35 89.5301-2.1701 1.25 11.57-25.71h1.4601z" fill="#fffbf8" stroke="#002484" stroke-linejoin="round" stroke-width=".25"/><path d="m81.1799 90.7802-.49-.28 11.2701-25.57.7899.14z" fill="#6a89d8" stroke="#00208a" stroke-miterlimit="10" stroke-width=".25"/><path d="m66.17 80.6402-2.17 1.25 11.57-25.71h1.46z" fill="#fffbf8" stroke="#002484" stroke-linejoin="round" stroke-width=".25"/><path d="m64 81.8903-.49-.28 11.27-25.57.79.14z" fill="#6a89d8" stroke="#00208a" stroke-miterlimit="10" stroke-width=".25"/><path d="m78.1 75.2701-.07 1.94-19.03-10.91.06-1.93z" fill="#6a89d8" stroke="#00208a" stroke-miterlimit="10" stroke-width=".25"/><path d="m96.9101 64.2803-.06 1.96-18.77 10.99.07-1.96z" fill="#fffbf8" stroke="#002484" stroke-linejoin="round" stroke-width=".25"/><path d="m59.0601 64.3202 18.77-10.85 18.8999 10.69.13.07-18.7599 10.99z" fill="#d0d8f1" stroke="#002484" stroke-linejoin="round" stroke-width=".25"/><path d="m88.6401 76.3903c.1712 0 .31-.1388.31-.31s-.1388-.31-.31-.31-.31.1388-.31.31.1388.31.31.31z" fill="#00208a"/><path d="m79.46 67.4401-7.9001-4.56 16.5-8.74 7.67 3.99z" fill="#e6e6e6" stroke="#00208a" stroke-miterlimit="10" stroke-width=".25"/><path d="m79.46 67.4401v.61l16.2699-9.17v-.75z" fill="#e6e6e6" stroke="#00208a" stroke-miterlimit="10" stroke-width=".25"/><path d="m79.46 68.0501-8.0201-4.64.12-.53 7.9001 4.56z" fill="#e6e6e6" stroke="#00208a" stroke-miterlimit="10" stroke-width=".25"/><path d="m84.25 60.3701-2.89.31 3.09-3.23-3.34 2.3 1.21-3.09-2.47 3.16.09-3.42-1.13 3.78-1.56-3.65s.89 6.02 1.18 6.02.8.4.8.4z" fill="#f57118" stroke="#04005a" stroke-miterlimit="10" stroke-width=".25"/><path d="m78.8 63.2802c.68-.29-.1-.85-.15-.89l.05-.02c.24-.23.8-.71.8-.71-.25-.18-1.07-.29-1.07-.29s-.08-.02-.15-.02h-.06c.22-.27.74-.87.74-.87-.3-.07-1.23.14-1.23.14.17-.33.58-1.06.58-1.06-.35.09-1.3.66-1.3.66s-.02.02-.09.07l-.08.04c.12-.34.43-1.11.43-1.11-.36.2-1.29 1.02-1.29 1.02s-.09.08-.16.14l-.1.14c.07-.34.26-1.1.26-1.1-.36.29-1.21 1.3-1.21 1.3s-.05.05-.1.11v.06c0-.31.05-1.02.05-1.02-.33.38-1.04 1.54-1.04 1.54s-.05.08-.1.16l-.15.21c-.05-.26-.14-.88-.14-.88-.28.43-.83 1.66-.83 1.66s-.06.12-.1.22l-.37-.57c-.21.47-.51 1.69-.51 1.69s0 .03-.02.08v.06l-.08.26c-.2-.12-.5-.33-.5-.33-.11.46.05 1.9.05 1.9l-.73-.04c0 .41.29 1.34.3 1.39v.03l-.59.17c.11.33.62.95.62.95s.04.06.08.1l4.95-2.7v-.69l3.23-1.81z" fill="#fdfdff"/><path d="m78.8 63.2802c.68-.29-.1-.85-.15-.89l.05-.02c.24-.23.8-.71.8-.71-.25-.18-1.07-.29-1.07-.29s-.08-.02-.15-.02h-.06c.22-.27.74-.87.74-.87-.3-.07-1.23.14-1.23.14.17-.33.58-1.06.58-1.06-.35.09-1.3.66-1.3.66s-.02.02-.09.07l-.08.04c.12-.34.43-1.11.43-1.11-.36.2-1.29 1.02-1.29 1.02s-.09.08-.16.14l-.1.14c.07-.34.26-1.1.26-1.1-.36.29-1.21 1.3-1.21 1.3s-.05.05-.1.11v.06c0-.31.05-1.02.05-1.02-.33.38-1.04 1.54-1.04 1.54s-.05.08-.1.16l-.15.21c-.05-.26-.14-.88-.14-.88-.28.43-.83 1.66-.83 1.66s-.06.12-.1.22l-.37-.57c-.21.47-.51 1.69-.51 1.69s0 .03-.02.08v.06l-.08.26c-.2-.12-.5-.33-.5-.33-.11.46.05 1.9.05 1.9l-.73-.04c0 .41.29 1.34.3 1.39v.03l-.59.17c.11.33.62.95.62.95s.04.06.08.1l4.95-2.7v-.69l3.23-1.81z" stroke="#000056" stroke-linejoin="round" stroke-width=".25"/><path d="m93.11 56.7603s-3.2999.0299-4.4599 1.6499-1.77 3.6101-4.66 4.6801-5.9401 3.47-5.9401 3.47" fill="#e6e6e6"/><path d="m93.11 56.7603s-3.2999.0299-4.4599 1.6499-1.77 3.6101-4.66 4.6801-5.9401 3.47-5.9401 3.47" stroke="#00208a" stroke-miterlimit="10" stroke-width=".25"/><path d="m93.67 57.0503s-3.29.14-4.19 1.64-2.2299 3.09-4.3599 4.39-4.33 2.37-6.56 3.97" fill="#e6e6e6"/><path d="m93.67 57.0503s-3.29.14-4.19 1.64-2.2299 3.09-4.3599 4.39-4.33 2.37-6.56 3.97" stroke="#00208a" stroke-miterlimit="10" stroke-width=".25"/><path d="m89.7001 54.9902s.74 1.15-6.88 2.06z" fill="#e6e6e6"/><path d="m89.7001 54.9902s.74 1.15-6.88 2.06" stroke="#00208a" stroke-miterlimit="10" stroke-width=".25"/><path d="m88.9501 56.4001s-2.99 1.06-3.05 1.73 3.89-1.1 3.05-1.73z" fill="#e6e6e6" stroke="#00208a" stroke-miterlimit="10" stroke-width=".25"/><path d="m81.18 47.5699c.5909 0 1.07-.479 1.07-1.07 0-.5909-.4791-1.07-1.07-1.07-.591 0-1.07.4791-1.07 1.07 0 .591.479 1.07 1.07 1.07z" fill="#f57118"/><path d="m74.56 45.19c.5909 0 1.07-.479 1.07-1.0699 0-.591-.4791-1.0701-1.07-1.0701s-1.07.4791-1.07 1.0701c0 .5909.4791 1.0699 1.07 1.0699z" fill="#f57118"/><path d="m86.1201 46.2599c.5909 0 1.07-.4791 1.07-1.07 0-.591-.4791-1.07-1.07-1.07-.591 0-1.0701.479-1.0701 1.07 0 .5909.4791 1.07 1.0701 1.07z" fill="#f57118"/><path d="m76.6 53.69c.591 0 1.07-.479 1.07-1.0699 0-.591-.479-1.0701-1.07-1.0701-.5909 0-1.07.4791-1.07 1.0701 0 .5909.4791 1.0699 1.07 1.0699z" fill="#f57118"/><path d="m80.1201 44.13c.5909 0 1.07-.4791 1.07-1.07s-.4791-1.07-1.07-1.07c-.591 0-1.0701.4791-1.0701 1.07s.4791 1.07 1.0701 1.07z" fill="#f57118"/><path d="m88.61 51.4501c.591 0 1.0701-.4791 1.0701-1.07 0-.591-.4791-1.07-1.0701-1.07-.5909 0-1.07.479-1.07 1.07 0 .5909.4791 1.07 1.07 1.07z" fill="#f57118"/><path d="m77.34 48.8599c.4031 0 .73-.3268.73-.73s-.3269-.73-.73-.73c-.4032 0-.73.3268-.73.73s.3268.73.73.73z" fill="#f57118"/><path d="m71.97 49.5899c.4031 0 .73-.3269.73-.73 0-.4032-.3269-.73-.73-.73-.4032 0-.73.3268-.73.73 0 .4031.3268.73.73.73z" fill="#f57118"/><path d="m82.22 60.3001c.4031 0 .73-.3268.73-.73s-.3269-.73-.73-.73c-.4032 0-.73.3268-.73.73s.3268.73.73.73z" fill="#f57118"/><path d="m71.24 55.4099c.4032 0 .73-.3268.73-.73 0-.4031-.3268-.7299-.73-.7299s-.73.3268-.73.7299c0 .4032.3268.73.73.73z" fill="#f57118"/><path d="m83.35 50.3199c.4031 0 .73-.3269.73-.73 0-.4032-.3269-.73-.73-.73-.4032 0-.73.3268-.73.73 0 .4031.3268.73.73.73z" fill="#f57118"/><path d="m81.1799 54.68c.4032 0 .73-.3269.73-.73 0-.4032-.3268-.73-.73-.73-.4031 0-.7299.3268-.7299.73 0 .4031.3268.73.7299.73z" fill="#f57118"/><path d="m86.12 55.4099c.4032 0 .73-.3268.73-.73 0-.4031-.3268-.7299-.73-.7299s-.73.3268-.73.7299c0 .4032.3268.73.73.73z" fill="#f57118"/><path d="m70.73 44.3999c.4031 0 .73-.3268.73-.73 0-.4031-.3269-.73-.73-.73-.4032 0-.73.3269-.73.73 0 .4032.3268.73.73.73z" fill="#f57118"/><path d="m76.6 41.43c.4031 0 .73-.3269.73-.73 0-.4032-.3269-.73-.73-.73-.4032 0-.73.3268-.73.73 0 .4031.3268.73.73.73z" fill="#f57118"/><path d="m74.23 58.8399c.4031 0 .73-.3269.73-.73 0-.4032-.3269-.73-.73-.73-.4032 0-.73.3268-.73.73 0 .4031.3268.73.73.73z" fill="#f57118"/><path d="m83.6799 42.1599c.4032 0 .73-.3268.73-.73 0-.4031-.3268-.7299-.73-.7299-.4031 0-.7299.3268-.7299.7299 0 .4032.3268.73.7299.73z" fill="#f57118"/><path d="m100.46 86.04-66.46-38.37v-46.67l66.46 38.37z" fill="#fffbf8" stroke="#002484" stroke-linejoin="round" stroke-width=".24"/><path d="m110.35 69.7001h-1.36c-2.09-.01-3.51-1.25-3.6-3.12-.09-1.94 1.14-3.33 3.21-3.52.5-.05.69-.07.8-.66.27-1.58 1.28-2.66 2.81-3.09 1.58-.44 3.04-.06 4.12 1.23.42.49.8.61 1.42.58 1.69-.09 2.98.91 3.4 2.6.12.48.22.71.8.77 1.56.17 2.39 1.2 2.33 2.71-.06 1.42-1.12 2.48-2.63 2.5h-3.86" stroke="#000056" stroke-miterlimit="10" stroke-width=".49"/><path d="m110.04 55.84h-1.46c-2.25-.01-3.78-1.35-3.88-3.37-.1-2.09 1.23-3.59 3.46-3.79.54-.05.75-.07.86-.71.29-1.7 1.37-2.87 3.03-3.33 1.71-.47 3.28-.07 4.44 1.32.45.53.86.66 1.53.62 1.82-.1 3.21.98 3.66 2.8.13.52.24.76.86.83 1.68.18 2.58 1.3 2.51 2.92-.06 1.53-1.2 2.67-2.83 2.7h-4.16" stroke="#000056" stroke-miterlimit="10" stroke-width=".49"/><path d="m97.75 62.7401c0 .42-.32.58-.71.36s-.71-.76-.71-1.18.32-.58.71-.36.71.76.71 1.18z" fill="#f57118"/><path d="m81.95 60.62c0 .42-.3199.58-.7099.36s-.7101-.76-.7101-1.18.3201-.58.7101-.36.7099.76.7099 1.18z" fill="#f57118"/><path d="m41.6299 44.3599 2.24-8.07 5.77 8.24 9.61-17.9 11.24 20.6 3.02 13.09 7.85-.11 15.68 2.12" stroke="#f57118" stroke-miterlimit="10" stroke-width=".24"/><path d="m42.3399 44.7701c0 .42-.32.58-.71.36s-.71-.76-.71-1.18.32-.58.71-.36.71.76.71 1.18z" fill="#f57118"/><path d="m44.5799 36.7001c0 .42-.32.58-.71.36s-.71-.7601-.71-1.1801.32-.58.71-.36.71.7601.71 1.1801z" fill="#f57118"/><path d="m50.4 45.18c0 .42-.32.58-.71.36s-.71-.76-.71-1.18.32-.58.71-.36.71.76.71 1.18z" fill="#f57118"/><path d="m60.5699 27.39c0 .78-.59 1.08-1.32.66s-1.32-1.4-1.32-2.18.59-1.08 1.32-.66 1.32 1.4 1.32 2.18z" fill="#f57118"/><path d="m71.27 47.4501c0 .42-.32.58-.71.36s-.71-.7601-.71-1.1801.32-.58.71-.36.71.7601.71 1.1801z" fill="#f57118"/><path d="m74.22 60.7301c0 .42-.32.58-.71.36s-.71-.76-.71-1.18.32-.58.71-.36.71.76.71 1.18z" fill="#f57118"/><path d="m97.83 64.98-7.86-9.18-6.22 2.42-8.36-7.83-6.87 3.94-8.98-24.1-5.4701 18.16-3.3999-9.27-4.1001 7.42-5.3999-15.02-2.3 2.42-2.29-2.95" stroke="#2765ff" stroke-miterlimit="10" stroke-width=".24"/><path d="m115.88 48.8101h-3.03l-1.52 2.6299 1.52 2.6301h3.03l1.52-2.6301z" stroke="#000056" stroke-miterlimit="10" stroke-width=".49"/><path d="m112.82 48.82-.74-1.31" stroke="#000056" stroke-miterlimit="10" stroke-width=".49"/><path d="m116.51 55.3301-.7-1.22" stroke="#000056" stroke-miterlimit="10" stroke-width=".49"/><path d="m115.82 48.77.72-1.24" stroke="#000056" stroke-miterlimit="10" stroke-width=".49"/><path d="m112.05 55.31.74-1.28" stroke="#000056" stroke-miterlimit="10" stroke-width=".49"/><path d="m117.4 51.4199h1.39" stroke="#000056" stroke-miterlimit="10" stroke-width=".49"/><path d="m109.8 51.4199h1.53" stroke="#000056" stroke-miterlimit="10" stroke-width=".49"/><path d="m110.974 68.2737c-1.156 0-1.892-.605-1.898-1.5154h.946c.006.4672.359.7607.982.7607.515 0 .821-.2037.821-.5451 0-.4073-.437-.4912-.946-.5691-.749-.1078-1.762-.2396-1.762-1.2698 0-.8207.677-1.3538 1.768-1.3538 1.102 0 1.809.587 1.809 1.4796h-.917c.006-.4613-.329-.7248-.869-.7248-.503 0-.796.2096-.796.5271 0 .4133.479.4852 1.018.563.749.1139 1.689.2756 1.689 1.2879 0 .8266-.713 1.3597-1.845 1.3597zm2.906-3.606c-.312 0-.533-.2156-.533-.5211 0-.2995.221-.5211.533-.5211.311 0 .533.2216.533.5211 0 .3055-.222.5211-.533.5211zm.443 3.4922h-.887v-3.0669h.887zm2.95.1138c-1.396 0-2.36-.8925-2.36-2.2462 0-1.3478.964-2.2463 2.36-2.2463s2.36.8985 2.36 2.2463c0 1.3537-.964 2.2462-2.36 2.2462zm0-.8266c.803 0 1.366-.581 1.366-1.4196s-.563-1.4137-1.366-1.4137-1.366.5751-1.366 1.4137.563 1.4196 1.366 1.4196zm4.257.7128h-1.539v-.2686l.864-.768c.152-.1372.272-.2394.272-.3942 0-.181-.14-.3124-.324-.3124-.211 0-.365.1664-.374.4205h-.432c-.012-.4702.33-.8118.811-.8118.444 0 .765.2803.768.6628 0 .2512-.16.441-.411.657l-.482.4176v.0292h.847z" fill="#000056"/><path d="m73.7701 96.0402-1.5799-.65-.27-2.2 2.07.44z" fill="#002484"/><path d="m73.9001 95.3902s.57 1.15 1.24 1.57c2.45 1.55 2 1.66 2.06 1.96.12.53-1.55.31-2.26-.03-2.26-1.09-2.24-1.51-2.24-1.51v.31s-.82-.31-.78-.81.28-1.65.28-1.65.37.42 1.02.42.68-.26.68-.26z" fill="#eff2f9" stroke="#000056" stroke-miterlimit="10" stroke-width=".25"/><path d="m68.64 98.5602-1.59-.64-.26-2.2 2.07.44z" fill="#002484"/><path d="m72.22 50.98s1.77-.07 2.76.85c1.31 1.2 2.3799 9.25 3.5299 10.43 1.5 1.69 3.5 3.76 3.5 3.76l-.9899 2.04c-1.4-1.35-3.7801-2.85-5.0101-5.16-2.76-5.2-3.7899-11.93-3.7899-11.93z" fill="#002484"/><g mask="url(#b)"><path d="m75.21 56.99c.19.05 3.65 8.99 3.52 9.06s-7.78 1.48-7.78 1.48l-.15-9.67z" fill="#000056"/></g><path d="m72.22 50.98s1.77-.07 2.76.85c1.31 1.2 2.3799 9.25 3.5299 10.43 1.5 1.69 3.5 3.76 3.5 3.76l-.9899 2.04c-1.4-1.35-3.7801-2.85-5.0101-5.16-2.76-5.2-3.7899-11.93-3.7899-11.93z" stroke="#000056" stroke-miterlimit="10" stroke-width=".25"/><path d="m66.1 70.29.27 26.25c.01.67.56 1.2 1.22 1.2h1.69l2.06-23.53.2899 19.74c0 .73.6001 1.33 1.3301 1.33l1.5499.06 1.3301-26.86s-1.33 1.69-3.53 2.05-6.22-.23-6.22-.23z" fill="#002484"/><path d="m75.18 56.85c-.1 2.14-.25 4.11-.25 4.11.08 4.1 1.22 8.14 1.22 8.14s-.53 1.4-4.48 2.94c-4.34 1.68-5.8501-1.75-5.8501-1.75l.2701-13.2s-.12-.71.4-2.1 3.3-3.18 3.3-3.18l.44-.06 1.52-.98" fill="#002484"/><path d="m75.18 56.85c-.1 2.14-.25 4.11-.25 4.11.08 4.1 1.22 8.14 1.22 8.14s-.53 1.4-4.48 2.94c-4.34 1.68-5.8501-1.75-5.8501-1.75l.2701-13.2s-.12-.71.4-2.1 3.3-3.18 3.3-3.18l.44-.06 1.52-.98" stroke="#000056" stroke-miterlimit="10" stroke-width=".25"/><path d="m69.65 50.3901s.19 1.04 0 1.73 1.02 1.3 2.11 1.25 1.02-.73 1.06-1.55-3.17-1.42-3.17-1.42z" fill="#ad6f34" stroke="#000056" stroke-miterlimit="10" stroke-width=".25"/><path d="m71.0099 51.88s1.0901.79 1.7401.42c1.13-.64 1.51-3.22 1.03-4.76s-3.84-1.06-3.84-1.06l-.44 3.84" fill="#ad6f34"/><path d="m71.0099 51.88s1.0901.79 1.7401.42c1.13-.64 1.51-3.22 1.03-4.76s-3.84-1.06-3.84-1.06l-.44 3.84" stroke="#000056" stroke-miterlimit="10" stroke-width=".25"/><path d="m69.97 49.0501.27.77.35.15v-1.83s.44.65 1.55.83c1.44.23 2.4-.88 2.4-.88s.1-1.18-1.3-1.85c-.84-.4-2.03-1.2-3.21-.6s-.79 1.13-.79 1.13-1.14.47-.28 2.76c.39 1.05.84 1.46.84 1.46l-.09-1.6.27-.33z" fill="#000056"/><path d="m69.2399 72.75s-1.36.83-2.03.88-.82-.32-.82-.32l.61 3.13 3.21-1.28-.97-2.42z" fill="#002484"/><path d="m73.9 95.39s.57 1.15 1.24 1.57c2.45 1.55 2 1.66 2.06 1.96.12.53-1.55.31-2.26-.03-2.26-1.09-2.24-1.51-2.24-1.51v.31s-.82-.31-.78-.81.28-1.65.28-1.65.37.42 1.02.42.68-.26.68-.26z" fill="#002484"/><path d="m68.5001 98.36-1.4701-.6001-.24-2.0399 1.92.4z" fill="#002484"/><path d="m68.6199 97.7601s.52 1.07 1.15 1.46c2.28 1.4399 1.8501 1.5399 1.9201 1.8199.11.5-1.4401.29-2.1001-.03-2.1-1.01-2.08-1.3999-2.08-1.3999v.29s-.76-.29-.73-.76.26-1.53.26-1.53.35.39.95.39.63-.24.63-.24z" fill="#002484"/><path d="m70.25 49.5602c-.04.2-.15.5-.15.5s-.23-.06-.32-.12c-.22-.15-.3401-.55-.2701-.89s.3101-.49.5301-.33.28.51.21.84z" fill="#ad6f34"/><path d="m67.79 53.3201c-2.28 1.32-3.42 1.66-5.14 7.18-.21.67-1.08 2.46-.05 3.91 1.69 2.38 4.5999 4.07 4.5999 4.07s2.54-2.09 1.44-2.13-3.3-2.7-3.75-3.28 2.5-4.77 2.5-4.77" fill="#002484"/><path d="m67.79 53.3201c-2.28 1.32-3.42 1.66-5.14 7.18-.21.67-1.08 2.46-.05 3.91 1.69 2.38 4.5999 4.07 4.5999 4.07s2.54-2.09 1.44-2.13-3.3-2.7-3.75-3.28 2.5-4.77 2.5-4.77" stroke="#000056" stroke-miterlimit="10" stroke-width=".25"/><path d="m75.26 47.2701s-.0999-1.87-2.0699-1.85-3.3701-.12-3.2401 1.84c0 0 2.57 1.36 3.71 1.19s1.6-1.18 1.6-1.18z" fill="#eff1fe" stroke="#04005a" stroke-miterlimit="10" stroke-width=".25"/><path d="m69.95 47.26s4.4099 1.25 5.3099 0c0 0 .15 4.25-.38 5.04-.49.72-2.8999 1.23-4.2599-.11-.82-.82-.54-2.6-.67-4.94z" fill="#eff1fe" stroke="#04005a" stroke-miterlimit="10" stroke-width=".25"/><path d="m71.1201 48.8801.12 1.51c2.36.75 3.97-.11 3.97-.11l.05-1.39c-1.45.57-3.67.21-4.15-.02z" fill="#86b1f2" stroke="#000056" stroke-miterlimit="10" stroke-width=".25"/><path d="m82.2201 68.9101c-.94-.32-2.78-1.24-2.78-1.24-.02-2.45 1.96-3.91 1.96-3.91s1.88-.09 2.79.31c1.11.64-1.49.91-1.2 1.06.76.39 3.78.37 4 1.2.37 1.45-.49 4.04-4.77 2.57z" fill="#f2f2f2" stroke="#000056" stroke-linejoin="round" stroke-width=".25"/><path d="m72.94 68.3c-2.21.28-7.4701 1.1901-7.4701 1.1901s-.75.94.24 1.32 5.78-.7701 7.42-.8901" fill="#eff1fe"/><path d="m72.94 68.3c-2.21.28-7.4701 1.1901-7.4701 1.1901s-.75.94.24 1.32 5.78-.7701 7.42-.8901" stroke="#04005a" stroke-miterlimit="10" stroke-width=".25"/><path d="m64.47 66.37 1.01 2.16s.3999 1.56 1.5399 2.21 2.5501.66 3.0901.24c.21-.17-.1201-.92-.4101-1.48-.16-.31.0101-.69.3501-.77l.9699-.15s.04-.88-1.44-1.16c0 0-1.0399-2.43-2.2899-3.45 0 0-3.12.98-2.83 2.41z" fill="#f2f2f2" stroke="#000056" stroke-linejoin="round" stroke-width=".25"/><path d="m73.3205 69.8863c.2602-.0505.3995-.4607.311-.9161-.0884-.4554-.371-.7836-.6313-.7331-.2602.0505-.3994.4607-.311.9161s.3711.7836.6313.7331z" fill="#eff1fe" stroke="#04005a" stroke-miterlimit="10" stroke-width=".25"/><path d="m73.3894 69.5282c.1301-.0253.1929-.2655.1402-.5366-.0526-.2711-.2008-.4703-.3309-.4451-.1301.0253-.1929.2655-.1402.5366.0526.2711.2007.4704.3309.4451z" fill="#04005a"/><path d="m73.1899 68.5801 5.28-.85c.35-.06.69.16.79.5l.5 1.8c.04.14-.03.29-.16.36-.06.03-.14.06-.22.07-.15.02-.45 0-.5-.14l-.33-1.17c-.04-.15-.04-.36-.19-.34l-4.98.75" fill="#04005a"/><path d="m79.3373 70.4662c.2079-.0293.3601-.1683.34-.3105s-.2048-.2337-.4126-.2044-.36.1684-.34.3106c.0201.1421.2048.2336.4126.2043z" fill="#eff1fe" stroke="#04005a" stroke-miterlimit="10" stroke-width=".25"/><path d="m97.12 87.1102-20.43 8.81-2.23-1.05 20.19-9.18z" fill="#3861cb" stroke="#00208a" stroke-miterlimit="10" stroke-width=".25"/><path d="m82.66 94.2801-20.43 8.7999-2.23-1.04 20.19-9.1899z" fill="#6a89d8" stroke="#00208a" stroke-miterlimit="10" stroke-width=".25"/><path d="m74.7 109.57 2.17 1.25-11.57-25.7099h-1.46z" fill="#6a89d8" stroke="#00208a" stroke-miterlimit="10" stroke-width=".25"/><path d="m76.8701 110.82.4899-.28-11.27-25.5698-.79.14z" fill="#fffbf8" stroke="#002484" stroke-linejoin="round" stroke-width=".25"/><path d="m91.43 99.72 2.17 1.26-11.57-25.71h-1.45z" fill="#6a89d8" stroke="#00208a" stroke-miterlimit="10" stroke-width=".25"/><path d="m93.6 100.98.49-.28-11.27-25.5699-.79.14z" fill="#fffbf8" stroke="#002484" stroke-linejoin="round" stroke-width=".25"/><path d="m61.2599 84.2802 18.96-10.86 18.76 10.99-19.04 10.9-18.69-10.95s-.03-.07 0-.09zm18.77 10.91 18.74-10.82-18.61-10.82-18.74 10.82z" fill="#001c77" stroke="#00208a" stroke-miterlimit="10" stroke-width=".25"/><path d="m61.4099 84.3703 18.62 10.82 18.73-10.82-18.61-10.82z" fill="#d0d8f1" stroke="#002484" stroke-linejoin="round" stroke-width=".25"/><path d="m79.95 95.3201.07 1.9301 19.03-10.9001-.06-1.9399z" fill="#fffbf8" stroke="#002484" stroke-linejoin="round" stroke-width=".25"/><path d="m61.1899 84.3201.06 1.97 18.77 10.99-.07-1.96z" fill="#6a89d8" stroke="#00208a" stroke-miterlimit="10" stroke-width=".25"/><path d="m74.1398 80.8502 2.33-.6 7.5801-4.98c.33-.22.7799-.22 1.2699.04.5.26.95.73 1.27 1.29.33.56.5201 1.2.5201 1.78 0 .59-.2001 1.02-.5301 1.23l-7.56 5.01-1.4199 1.5-2.54 1.87-3.2301-5.51 2.3-1.64z" fill="#f2f2f2" stroke="#000056" stroke-miterlimit="10" stroke-width=".25"/><path d="m76.3 80.2502c.35-.04.74.04 1.17.29.58.33 1.1.9 1.47 1.55.38.65.61 1.39.61 2.05 0 .5-.0901.94-.2901 1.21-.07.1-.1499.17-.2399.22l-1.42 1.35-.31.2c.4-.29.5899-.87.5899-1.63 0-.82-.28-1.73-.75-2.54-.46-.81-1.1099-1.51-1.8299-1.93-.47-.27-.93-.39-1.31-.36l1.96-.36c.11-.04.22-.06.34-.07z" fill="#f2f2f2" stroke="#000056" stroke-miterlimit="10" stroke-width=".25"/><path d="m73.8099 80.6601.13-.08.12-.02c.09-.03.19-.05.29-.05.39-.03.84.09 1.32.36.71.41 1.36 1.12 1.83 1.93s.75 1.72.75 2.53c0 .75-.18 1.32-.58 1.62l-.12.08-2.53 1.63-3.73-6.43z" fill="#f2f2f2" stroke="#000056" stroke-miterlimit="10" stroke-width=".25"/><path d="m73.0299 82.4902c-1.46-.84-2.64-.17-2.65 1.51zm-2.65 1.51c0 1.68 1.17 3.72 2.63 4.56s2.65.17 2.65-1.51-1.17-3.72-2.63-4.56" fill="#f2f2f2"/><path d="m73.0299 82.4902c-1.46-.84-2.64-.17-2.65 1.51 0 1.68 1.17 3.72 2.63 4.56s2.65.17 2.65-1.51-1.17-3.72-2.63-4.56z" stroke="#000056" stroke-miterlimit="10" stroke-width=".25"/><path d="m71.1499 84.4502c0-.59.21-1 .55-1.19s.8-.16 1.31.13.98.8 1.31 1.38c.34.58.54 1.23.54 1.82s-.21 1-.55 1.2c-.34.19-.8.16-1.32-.13s-.98-.8-1.31-1.38c-.34-.58-.54-1.23-.54-1.82" fill="#c0c0c0"/><path d="m71.1499 84.4502c0-.59.21-1 .55-1.19s.8-.16 1.31.13.98.8 1.31 1.38c.34.58.54 1.23.54 1.82s-.21 1-.55 1.2c-.34.19-.8.16-1.32-.13s-.98-.8-1.31-1.38c-.34-.58-.54-1.23-.54-1.82" stroke="#000056" stroke-miterlimit="10" stroke-width=".25"/><g fill="#f57118"><path d="m77.33 75.5101 1.69-2v4.04l.75-3.58 1.14 2.77-.36-3.6 2.07 2.29-1.62-3.17 3.29 1.41s-4.33-3.37-4.52-3.19-.77.23-.77.23l-1.67 4.82z" stroke="#04005a" stroke-miterlimit="10" stroke-width=".25"/><path d="m81.17 56.5699c.591 0 1.0701-.479 1.0701-1.07 0-.5909-.4791-1.07-1.0701-1.07-.5909 0-1.0699.4791-1.0699 1.07 0 .591.479 1.07 1.0699 1.07z"/><path d="m74.55 54.2001c.5909 0 1.07-.4791 1.07-1.07 0-.591-.4791-1.07-1.07-1.07-.591 0-1.07.479-1.07 1.07 0 .5909.479 1.07 1.07 1.07z"/><path d="m86.11 55.2599c.591 0 1.0701-.4791 1.0701-1.07 0-.591-.4791-1.07-1.0701-1.07-.5909 0-1.07.479-1.07 1.07 0 .5909.4791 1.07 1.07 1.07z"/><path d="m76.6 62.7001c.591 0 1.07-.4791 1.07-1.07 0-.591-.479-1.07-1.07-1.07-.5909 0-1.07.479-1.07 1.07 0 .5909.4791 1.07 1.07 1.07z"/><path d="m80.11 53.13c.591 0 1.0701-.4791 1.0701-1.07s-.4791-1.07-1.0701-1.07c-.5909 0-1.07.4791-1.07 1.07s.4791 1.07 1.07 1.07z"/><path d="m88.61 60.4501c.591 0 1.0701-.4791 1.0701-1.07 0-.591-.4791-1.07-1.0701-1.07-.5909 0-1.07.479-1.07 1.07 0 .5909.4791 1.07 1.07 1.07z"/><path d="m77.3301 57.8599c.4031 0 .73-.3268.73-.73s-.3269-.73-.73-.73c-.4032 0-.73.3268-.73.73s.3268.73.73.73z"/><path d="m71.97 58.5899c.4032 0 .73-.3269.73-.73 0-.4032-.3268-.73-.73-.73-.4031 0-.73.3268-.73.73 0 .4031.3269.73.73.73z"/><path d="m82.21 69.3101c.4032 0 .73-.3268.73-.73s-.3268-.73-.73-.73c-.4031 0-.73.3268-.73.73s.3269.73.73.73z"/><path d="m71.23 64.4099c.4031 0 .73-.3268.73-.73 0-.4031-.3269-.7299-.73-.7299-.4032 0-.73.3268-.73.7299 0 .4032.3268.73.73.73z"/><path d="m83.34 59.3299c.4032 0 .73-.3269.73-.73 0-.4032-.3268-.73-.73-.73-.4031 0-.73.3268-.73.73 0 .4031.3269.73.73.73z"/><path d="m81.1699 63.68c.4032 0 .7301-.3269.7301-.73 0-.4032-.3269-.73-.7301-.73-.4031 0-.73.3268-.73.73 0 .4031.3269.73.73.73z"/><path d="m86.11 64.4099c.4032 0 .73-.3268.73-.73 0-.4031-.3268-.7299-.73-.7299s-.73.3268-.73.7299c0 .4032.3268.73.73.73z"/><path d="m70.73 53.4099c.4031 0 .73-.3268.73-.73 0-.4031-.3269-.7299-.73-.7299-.4032 0-.73.3268-.73.7299 0 .4032.3268.73.73.73z"/><path d="m76.6 50.44c.4032 0 .73-.3269.73-.73 0-.4032-.3268-.73-.73-.73-.4031 0-.73.3268-.73.73 0 .4031.3269.73.73.73z"/><path d="m74.22 67.8399c.4032 0 .73-.3269.73-.73 0-.4032-.3268-.73-.73-.73-.4031 0-.73.3268-.73.73 0 .4031.3269.73.73.73z"/><path d="m83.6699 51.17c.4032 0 .7301-.3269.7301-.73 0-.4032-.3269-.73-.7301-.73-.4031 0-.73.3268-.73.73 0 .4031.3269.73.73.73z"/></g></svg>