<svg fill="none" height="117" viewBox="0 0 202 117" width="202" xmlns="http://www.w3.org/2000/svg"><path d="m96.35 59.64 98.34 56.77 6.94-4.04-192.85-111.37-6.94 4.04999 87.18 50.35001-88.02 50.41 7.92999 4.58 87.44001-50.74z" fill="#fffbf8" stroke="#002484" stroke-linejoin="round" stroke-width=".25"/><path d="m45.9599 78.2399c-.06.02.01.1.05.13-.02.02-.07.05-.07.05s-.23.07-.25.12c-.02.04.09.02.16.02-.07.03-.15.08-.16.12s.09 0 .15 0c-.04.03-.07.06-.07.08 0 .06.19-.06.31-.12s.19-.16.19-.16l.13-.06v-.24s-.18.14-.3.11c-.04-.02-.1-.04-.15-.03z" fill="#063abe"/><path d="m48.1998 75.0701s-.31.06-.46.3-.33 1.61-.52 1.89c-.3.44-.91.92-.91.92l.1.3699c.82-.58 1-.7599 1.23-1.0399s.57-2.45.57-2.45z" fill="#04005a"/><path d="m49.2299 78.4299-.03 2.86.58 1.04c0 .13-.09.26-.21.29l-.28.09-.78-1.14-.17-2.13-.37 1.98-.32 2c0 .14-.1.28-.22.32l-.26.09.2-2.34.21-2.91s.22.25.59.21 1.04-.36 1.04-.36z" fill="#04005a"/><path d="m47.7098 76.34c.02.4-.06.77-.06.77-.01.79-.0499 1.47-.0499 1.47s.0399.38.6999.47c.73.1.98-.64.98-.64s.03-.59-.06-1.46l.02-1.04s.0201-.14-.0699-.38-.5501-.44-.5501-.44h-.07l-.2599-.1" fill="#04005a"/><path d="m48.63 74.8298s-.03.21 0 .33-.17.3-.35.35-.17-.09-.18-.24.53-.43.53-.43z" fill="#063abe"/><path d="m48.41 75.1799s-.18.21-.29.17c-.19-.06-.2499-.54-.1699-.85s.6499-.4.6499-.4l.0701.71" fill="#063abe"/><path d="m48.58 74.5899-.05.16-.06.05v-.35s-.07.15-.26.24c-.24.12-.4-.04-.4-.04s-.02-.22.22-.42c.14-.12.34-.33.54-.28s.13.17.13.17.19.03.05.51c-.07.22-.14.32-.14.32l.02-.31z" fill="#04005a"/><path d="m49.73 79.2799c0 .08.08-.02.11-.06 0 .03.01.09.01.09s-.02.3.01.33c.03.02.04-.12.06-.21 0 .09.01.2.04.21s.03-.11.04-.2c0 .05.02.09.04.1.04.01.02-.25.01-.41 0-.15-.06-.26-.06-.26v-.17l-.18-.02s.04.25-.01.4c-.02.05-.06.13-.07.19z" fill="#063abe"/><path d="m48.7397 75.24c.38.01.74.61 1.03 1.23.31.68.2901 2.3.2901 2.3l-.3.06s-.1001-1.31-.2701-1.77c-.1-.34-.2999-.61-.2999-.61" fill="#04005a"/><path d="m48.53 74.6998.03.09s.04-.02.05-.04c.04-.04.06-.12.05-.18s-.05-.08-.09-.04-.05.11-.04.17z" fill="#063abe"/><path d="m47.3899 83.4299s-.17.24-.3.28c-.48.17-.42.24-.45.3-.06.12.21.22.34.2.42-.07.35-.08.42-.1s.14 0 .17-.13.08-.44.08-.44-.09.07-.18.01-.08-.13-.08-.13z" fill="#04005a"/><path d="m49.2399 82.4498s.05.29 0 .49c-.22.73-.12.66-.1.71.05.11.3-.26.38-.46.24-.62.19-.52.23-.64s.1-.21.02-.28-.26-.2-.26-.2 0 .14-.12.27-.15.1-.15.1z" fill="#04005a"/><path d="m111.83 60.32c-.11.03-.29-.1-.29-.1v.23l.13.06s.07.09.18.15.3.16.29.11c0-.02-.03-.05-.07-.07.06.01.15.04.14 0 0-.03-.09-.08-.15-.11.06 0 .16.02.15-.02-.02-.05-.24-.11-.24-.11s-.04-.03-.06-.04c.03-.02.11-.1.05-.12-.05-.01-.1.01-.14.03z" fill="#063abe"/><path d="m109.85 57.3s.3.0601.44.2901.31 1.51.49 1.78c.28.41.86.87.86.87l-.09.35c-.77-.55-.94-.72-1.16-.98s-.54-2.3101-.54-2.3101z" fill="#04005a"/><path d="m108.88 60.47.02 2.7-.55.98c0 .12.09.24.19.27l.27.08.73-1.07.16-2.01.34 1.87.3 1.89c0 .13.09.27.21.3l.25.09-.19-2.21-.2-2.74s-.21.24-.56.2-.98-.34-.98-.34z" fill="#04005a"/><path d="m110.32 58.5c-.02.38.06.73.06.73.01.74.04 1.38.04 1.38s-.03.36-.66.44c-.69.09-.93-.6-.93-.6s-.02-.56.06-1.37l-.02-.98s-.02-.13.06-.36.52-.41.52-.41h.07l.24-.09" fill="#04005a"/><path d="m109.45 57.0701s.03.2 0 .31.16.28.33.33.16-.08.17-.23-.5-.41-.5-.41z" fill="#063abe"/><path d="m109.66 57.4001s.17.19.27.16c.18-.06.24-.51.16-.8s-.61-.38-.61-.38l-.07.67" fill="#063abe"/><path d="m109.5 56.8501.04.15.05.04v-.33s.07.14.24.22c.23.11.38-.04.38-.04s.02-.21-.21-.39c-.13-.11-.32-.31-.51-.26s-.12.16-.12.16-.18.03-.04.48c.06.21.13.3.13.3v-.29l.03-.05z" fill="#04005a"/><path d="m108.35 61.08c-.06-.15-.01-.38-.01-.38l-.17.02v.1599s-.05.1-.06.24c0 .14-.03.4001.01.3801.01 0 .02-.0401.03-.0901.01.08.02.2.04.19s.03-.12.03-.2c.02.08.04.2101.06.1901.03-.03.01-.31.01-.31s0-.05.01-.09c.03.04.11.14.1.06 0-.06-.04-.1401-.06-.1801z" fill="#063abe"/><path d="m109.34 57.46c-.36 0-.7.57-.97 1.16-.29.64-.27 2.17-.27 2.17l.28.05s.1-1.24.25-1.67c.1-.32.28-.57.28-.57" fill="#04005a"/><path d="m109.54 56.9501-.02.08s-.04-.02-.05-.04c-.03-.04-.05-.11-.04-.17s.05-.07.08-.03.04.1.03.16z" fill="#063abe"/><path d="m110.62 65.1802s.16.22.28.27c.45.16.4.22.43.29.05.12-.19.21-.32.19-.39-.06-.33-.07-.4-.09s-.13 0-.16-.13-.08-.41-.08-.41.08.07.17.01.08-.12.08-.12z" fill="#04005a"/><path d="m108.88 64.2502s-.05.2699 0 .4599c.2.69.12.62.09.67-.05.1-.29-.25-.36-.43-.23-.58-.18-.49-.21-.6s-.09-.2-.02-.26.25-.19.25-.19 0 .13.11.25.14.09.14.09z" fill="#04005a"/><path d="m14.4399 102.95s.02-.06.04-.08c.05-.04.14-.11.23-.27.05-.09.24-.35.24-.35s.02 0 .11.05c.04.03.12-.13.12-.13s.01 0 .02.03c0 .02.01.05 0 .09 0 .06 0 .16.02.22 0 .03-.01.08-.04.11l-.14.11-.19.09-.45.23s0-.08.01-.12z" fill="#002484"/><path d="m15.4099 100.6.26.16s.09-.04.12-.12.03-.15.03-.15l-.25-.26z" fill="#123eb7" stroke="#002484" stroke-linejoin="round" stroke-width=".17"/><path d="m15.3699 101.47s0-.05 0-.08c.02-.07.07-.21.07-.36 0-.09.03-.4.03-.4s.02-.03.13-.11c.05-.04.04-.19.04-.19s.02-.01.04-.02c.02 0 .04 0 .06.02.03.03.09.03.14.03.03 0 .04.04.02.08l-.07.2-.12.25-.29.62s-.04-.02-.05-.05z" fill="#123eb7" stroke="#002484" stroke-linejoin="round" stroke-width=".17"/><g fill="#000056"><path d="m15.47 97.5599s-1.51 1.77-1.51 2.28c0 .3001 1.1.9901 1.1.9901l.24-.5s-.57-.4501-.55-.5901c.03-.14 1.41-1.92 1.46-2.14s-.2-.42-.2-.42l-.55.37z"/><path d="m13.6298 99.96 1.7901.28s.0799-.04.0999-.1 0-.11-.03-.12l-1.7899-.28s-.0801.04-.1001.1 0 .11.03.12z"/><path d="m13.38 100.69 1.74.51s.08-.03.1-.09.01-.11-.02-.12l-1.74-.51s-.08.03-.1.09-.01.11.02.12z"/><path d="m11.1399 103.99c0-1.05.62-2.26 1.38-2.7s1.38.06 1.38 1.1-.62 2.26-1.38 2.7-1.38-.06-1.38-1.1zm.17-.1c0 .92.54 1.35 1.21.97s1.21-1.44 1.21-2.36-.54-1.35-1.21-.97-1.21 1.44-1.21 2.36z"/><path d="m14.01 102.42s.06-.08.06-.13c0-1.18-.7-1.74-1.56-1.25-.37.21-.73.6-1.01 1.09-.03.05-.03.11 0 .13.02.02.06 0 .09-.04.26-.45.59-.8.92-1 .79-.45 1.43.06 1.43 1.14 0 .05.03.07.06.05z" stroke="#000056" stroke-linejoin="round" stroke-width=".17"/><path d="m15.47 101.5c0-1.05.62-2.2601 1.38-2.7001s1.38.06 1.38 1.1c0 1.0401-.62 2.2601-1.38 2.7001s-1.38-.06-1.38-1.1zm.17-.1c0 .92.54 1.35 1.21.97s1.21-1.44 1.21-2.36c0-.9201-.54-1.3501-1.21-.9701s-1.21 1.4401-1.21 2.3601z" stroke="#000056" stroke-linejoin="round" stroke-width=".17"/><path d="m15.8799 99.78s.03-.0201.04-.0501c.26-.45.59-.8.92-1 .29-.16.56-.21.8-.13.03.01.07-.02.09-.08.02-.05.01-.1-.02-.11-.26-.09-.56-.04-.87.14-.37.21-.73.6-1.01 1.09-.03.05-.03.11 0 .13.01.01.03.01.05 0z" stroke="#000056" stroke-linejoin="round" stroke-width=".17"/></g><path d="m16.8499 100.5s.02-.02.02-.03 0-.02-.02-.02l-1.8999.98s-.0201.02-.0201.03.0001.02.0201.02z" fill="#123eb7" stroke="#002484" stroke-linejoin="round" stroke-width=".17"/><path d="m14.92 102.18 1.93-1.23s.02-.02.02-.04c0-.01.03-.46.03-.46l-1.94.95s-.05.75-.04.76c0 .01 0 .02.02.01z" fill="#002484"/><path d="m15.02 101.72s.04-.04.05-.07l1.19-3.6101s0-.0799-.02-.0899c-.03 0-.06.0299-.07.0699l-1.19 3.6101s0 .08.02.09h.03z" fill="#123eb7" stroke="#002484" stroke-linejoin="round" stroke-width=".17"/><path d="m16.8499 100.76s.01-.01.02-.02c.02-.03.03-.07.02-.09l-.95-1.7101s-.04-.02-.06.01-.03.07-.02.09l.95 1.7101s.02.02.04 0z" fill="#123eb7" stroke="#002484" stroke-linejoin="round" stroke-width=".17"/><path d="m14.9499 102.19c.16-.09.28-.34.28-.56s-.13-.32-.28-.23-.28.34-.28.56.13.32.28.23z" fill="#123eb7" stroke="#002484" stroke-linejoin="round" stroke-width=".17"/><path d="m15.1899 101.65c0 .19-.11.41-.25.49s-.25 0-.25-.2.11-.41.25-.49.25 0 .25.2z" fill="#002484"/><path d="m16.5 97.7101-.42.24s-.06.07-.06.11v.09s.03.06.06.05l.53-.31s.07-.1.05-.14c-.03-.06-.09-.09-.16-.04z" fill="#123eb7" stroke="#002484" stroke-linejoin="round" stroke-width=".17"/><path d="m15.8599 97.51c-.1.16-1.16 1.43-1.27 2.24-.12.87.29 2.58.29 2.58s.14.03.4-.12c0 0-.02-2.08.04-2.37s1.03-.86 1.38-1.47c.05-.08-.84-.87-.84-.87z" fill="#123eb7"/><path d="m13.92 98.71-1.45 4.47s0 .08.02.09h.03c.02-.01.04-.04.05-.07l1.45-4.4701" fill="#000056"/><path d="m12.6799 103.1c0 .12-.07.26-.16.31s-.16 0-.16-.13.07-.26.16-.31.16 0 .16.13z" fill="#000056"/><path d="m16.8499 100.97c.11-.06.2-.23.2-.38s-.09-.22-.2-.16-.2.23-.2.38.09.22.2.16z" fill="#002484"/><path d="m13.3699 97.6599c-.07.01.04.09.08.12-.02.02-.07.04-.07.04s-.24.05-.25.1c0 .04.1.02.18.02-.07.03-.15.07-.15.1 0 .04.1.01.17 0-.04.02-.06.05-.06.07 0 .05.2-.04.31-.09s.18-.14.18-.14l.13-.05-.04-.22s-.18.12-.31.09c-.04-.02-.12-.04-.17-.03z" fill="#123eb7" stroke="#000056" stroke-miterlimit="10" stroke-width=".02"/><path d="m14.5598 98.5c-.07.01.04.0899.08.1199-.02.02-.07.0401-.07.0401s-.24.05-.25.1c0 .04.1.02.18.02-.07.03-.15.07-.15.1 0 .04.1.01.17 0-.04.02-.06.0499-.06.0699 0 .05.2-.04.31-.09s.18-.1399.18-.1399l.13-.0501-.04-.2199s-.18.1199-.31.0899c-.04-.02-.12-.04-.17-.03z" fill="#123eb7" stroke="#000056" stroke-miterlimit="10" stroke-width=".02"/><path d="m15.6699 95.2099s-.33-.03-.49.15-.35 1.41-.55 1.62c-.32.33-.97.6-.97.6l.11.38c.87-.31 1.06-.43 1.31-.62s.6-2.13.6-2.13z" fill="#000056"/><path d="m15.85 95.49s-.32.08-.41.31.15 1.44.02 1.71c-.19.41-.71.89-.71.89l.23.32c.71-.59.85-.76 1.02-1.02s-.15-2.21-.15-2.21z" fill="#000056"/><path d="m15.0699 96.0099c.02.38.04.73.04.73-.01.73-.22 1.45-.22 1.45s.09.25.8.52c.77.3 1.04-.31 1.04-.31s.03-.55-.07-1.38l.02-.97s.02-.13-.07-.37-.59-.57-.59-.57h-.08l-.27-.19" fill="#000056"/><path d="m16.0498 94.8499s-.03.18 0 .31-.1799.23-.3799.22-.18-.13-.19-.28.56-.25.56-.25z" fill="#123eb7" stroke="#000056" stroke-miterlimit="10" stroke-width=".02"/><path d="m15.8099 95.12s-.19.14-.31.08c-.2-.11-.27-.57-.18-.85s.68-.19.68-.19l.08.68" fill="#123eb7"/><path d="m15.8099 95.12s-.19.14-.31.08c-.2-.11-.27-.57-.18-.85s.68-.19.68-.19l.08.68" stroke="#000056" stroke-miterlimit="10" stroke-width=".02"/><path d="m15.9898 94.6199-.05.14-.06.03v-.33s-.08.12-.28.15c-.26.04-.43-.16-.43-.16s-.02-.21.23-.33c.15-.07.36-.21.57-.11s.14.2.14.2.2.08.05.49c-.07.19-.15.26-.15.26l.02-.28-.05-.06z" fill="#000056"/><path d="m15.9399 94.7099.03.09s.04-.01.06-.02c.04-.03.06-.1.05-.16s-.05-.09-.09-.06-.0499.09-.0399.15z" fill="#123eb7"/><path d="m13.0498 98.1099.75.34.13.36.27-.16.69.35" fill="#000056"/><path d="m13.0498 98.1099.75.34.13.36.27-.16.69.35" stroke="#000056" stroke-linejoin="round" stroke-width=".17"/><path d="m38.99 23.6499s-.02-.06-.04-.08c-.05-.04-.14-.11-.23-.27-.05-.09-.24-.35-.24-.35s-.02 0-.11.05c-.04.03-.12-.13-.12-.13s-.01 0-.02.03c0 .02-.01.05 0 .09 0 .06 0 .16-.02.22 0 .03.01.08.04.11l.14.11.19.09.45.23s0-.08-.01-.12z" fill="#002484"/><path d="m38.0199 21.2999-.26.16s-.09-.04-.12-.12-.03-.15-.03-.15l.25-.26z" fill="#123eb7" stroke="#002484" stroke-linejoin="round" stroke-width=".17"/><path d="m38.0499 22.1698s0-.05 0-.08c-.02-.07-.07-.21-.07-.36 0-.09-.03-.4-.03-.4s-.02-.03-.13-.11c-.05-.04-.04-.19-.04-.19s-.02-.01-.04-.02c-.02 0-.04 0-.06.02-.03.03-.09.03-.14.03-.03 0-.04.04-.02.08l.07.2.12.25.29.62s.04-.02.05-.05z" fill="#123eb7" stroke="#002484" stroke-linejoin="round" stroke-width=".17"/><path d="m37.96 18.2599s1.51 1.77 1.51 2.28c0 .3-1.1.99-1.1.99l-.24-.5s.57-.45.55-.59c-.03-.14-1.41-1.92-1.46-2.14s.2-.42.2-.42l.55.37z" fill="#000056"/><path d="m39.7999 20.6599-1.79.28s-.08-.04-.1-.1 0-.11.03-.12l1.79-.28s.08.04.1.1 0 .11-.03.12z" fill="#000056"/><path d="m40.0499 21.3799-1.74.51s-.08-.03-.1-.09-.01-.11.02-.12l1.74-.51s.08.03.1.09.01.11-.02.12z" fill="#000056"/><path d="m40.91 25.7898c-.76-.44-1.38-1.65-1.38-2.7s.62-1.54 1.38-1.1 1.38 1.65 1.38 2.7-.62 1.54-1.38 1.1zm0-3.56c-.67-.38-1.21.05-1.21.97s.54 1.97 1.21 2.36 1.21-.05 1.21-.97-.54-1.97-1.21-2.36z" fill="#000056"/><path d="m39.4099 23.1199s-.06-.08-.06-.13c0-1.18.7-1.74 1.56-1.25.37.21.73.6 1.01 1.09.03.05.03.11 0 .13-.02.02-.0601 0-.0901-.04-.26-.45-.5899-.8-.9199-1-.79-.45-1.43.06-1.43 1.14 0 .05-.03.07-.06.05z" fill="#000056" stroke="#000056" stroke-linejoin="round" stroke-width=".17"/><path d="m36.5799 23.2998c-.76-.44-1.3799-1.65-1.3799-2.7s.6199-1.54 1.3799-1.1 1.38 1.65 1.38 2.7-.62 1.54-1.38 1.1zm0-3.57c-.67-.38-1.21.05-1.21.97s.54 1.97 1.21 2.36 1.21-.05 1.21-.97-.54-1.97-1.21-2.36z" fill="#000056" stroke="#000056" stroke-linejoin="round" stroke-width=".17"/><path d="m37.5498 20.4699s-.0299-.02-.0399-.05c-.26-.45-.5901-.8-.9201-1-.29-.16-.5599-.21-.7999-.13-.03.01-.07-.02-.09-.08-.02-.05-.01-.1.02-.11.26-.09.5599-.04.8699.14.37.21.7301.6 1.0101 1.09.03.05.03.11 0 .13-.01.01-.0301.01-.0501 0z" fill="#000056" stroke="#000056" stroke-linejoin="round" stroke-width=".17"/><path d="m36.58 21.1999s-.0199-.02-.0199-.03-.0001-.02.0199-.02l1.9001.98s.02.02.02.03 0 .02-.02.02z" fill="#123eb7" stroke="#002484" stroke-linejoin="round" stroke-width=".17"/><path d="m38.51 22.8699-1.93-1.23s-.02-.02-.02-.04c0-.01-.03-.46-.03-.46l1.94.95s.05.75.04.76c0 .01 0 .02-.02.01z" fill="#002484"/><path d="m38.4099 22.4099s-.04-.04-.05-.07l-1.19-3.61s0-.08.02-.09c.03 0 .06.03.07.07l1.19 3.61s0 .08-.02.09c0 0-.02 0-.03 0z" fill="#123eb7" stroke="#002484" stroke-linejoin="round" stroke-width=".17"/><path d="m36.58 21.4598s-.01-.01-.02-.02c-.02-.03-.0299-.07-.0199-.09l.9499-1.71s.04-.02.06.01.0301.07.0201.09l-.9501 1.71s-.02.02-.04 0z" fill="#123eb7" stroke="#002484" stroke-linejoin="round" stroke-width=".17"/><path d="m38.4799 22.8798c-.16-.09-.2799-.3399-.2799-.5599s.1299-.32.2799-.23.28.34.28.56-.13.3199-.28.2299z" fill="#123eb7" stroke="#002484" stroke-linejoin="round" stroke-width=".17"/><path d="m38.23 22.3498c0 .19.11.41.25.49s.25 0 .25-.2-.11-.41-.25-.49-.25 0-.25.2z" fill="#002484"/><path d="m36.9199 18.41.42.24s.06.07.06.11v.09s-.03.06-.06.05l-.53-.31s-.07-.1-.05-.14c.03-.06.09-.09.16-.04z" fill="#123eb7" stroke="#002484" stroke-linejoin="round" stroke-width=".17"/><path d="m37.5701 18.1999c.1.16 1.1599 1.43 1.2699 2.24.12.87-.29 2.58-.29 2.58s-.14.03-.4-.12c0 0 .02-2.08-.04-2.37s-1.0299-.86-1.3799-1.47c-.05-.08.84-.87.84-.87z" fill="#123eb7"/><path d="m39.4999 19.4099 1.45 4.47s0 .08-.02.09c0 0-.02 0-.03 0-.02-.01-.04-.04-.05-.07l-1.45-4.47" fill="#000056"/><path d="m40.75 23.7999c0 .12.07.2601.16.3101s.16 0 .16-.13-.07-.26-.16-.31-.16-.0001-.16.1299z" fill="#000056"/><path d="m36.5799 21.6698c-.11-.06-.2-.23-.2-.38s.09-.22.2-.16.2.23.2.38-.09.22-.2.16z" fill="#002484"/><path d="m39.88 18.3898c-.14.03-.31-.09-.31-.09l-.04.22.13.05s.07.09.18.14.31.14.31.09c0-.02-.03-.04-.06-.07.07.01.17.03.17 0s-.08-.07-.15-.1c.07 0 .19.01.18-.02-.01-.05-.25-.1-.25-.1s-.04-.02-.07-.04c.04-.02.15-.11.08-.12-.05 0-.12.02-.17.03z" fill="#123eb7" stroke="#000056" stroke-miterlimit="10" stroke-width=".02"/><path d="m38.6999 19.2299c-.14.03-.3101-.09-.3101-.09l-.0399.22.13.05s.07.09.18.14.3099.14.3099.09c0-.02-.0299-.04-.0599-.07.07.01.1699.03.1699 0s-.08-.07-.15-.1c.07 0 .19.01.18-.02-.01-.05-.25-.1-.25-.1s-.0399-.02-.0699-.04c.04-.02.1499-.11.0799-.12-.05 0-.1199.02-.1699.03z" fill="#123eb7" stroke="#000056" stroke-miterlimit="10" stroke-width=".02"/><path d="m37.76 15.9098s.33-.03.49.15.35 1.41.55 1.62c.32.33.97.6.97.6l-.11.38c-.87-.31-1.06-.43-1.31-.62s-.6-2.13-.6-2.13z" fill="#000056"/><path d="m37.5699 16.1899s.32.08.41.31-.15 1.44-.02 1.71c.19.41.71.89.71.89l-.23.32c-.71-.59-.85-.76-1.02-1.02s.15-2.21.15-2.21z" fill="#000056"/><path d="m38.36 16.6999c-.02.38-.04.73-.04.73.01.73.22 1.45.22 1.45s-.09.25-.8.52c-.77.3-1.04-.31-1.04-.31s-.03-.55.07-1.38l-.02-.97s-.02-.13.07-.37.59-.57.59-.57h.08l.27-.19" fill="#000056"/><path d="m37.3798 15.5498s.03.18 0 .31.18.23.38.22.18-.13.19-.28-.56-.25-.56-.25z" fill="#123eb7" stroke="#000056" stroke-miterlimit="10" stroke-width=".02"/><path d="m37.6198 15.81s.19.14.31.08c.2-.11.27-.57.18-.85s-.68-.19-.68-.19l-.0799.68" fill="#123eb7"/><path d="m37.6198 15.81s.19.14.31.08c.2-.11.27-.57.18-.85s-.68-.19-.68-.19l-.0799.68" stroke="#000056" stroke-miterlimit="10" stroke-width=".02"/><path d="m37.4299 15.3099.05.14.06.03v-.33s.08.12.28.15c.26.04.43-.16.43-.16s.02-.21-.23-.33c-.15-.07-.36-.21-.57-.11s-.14.2-.14.2-.2.08-.05.49c.07.19.15.26.15.26l-.02-.28.05-.06z" fill="#000056"/><path d="m37.48 15.3998-.03.09s-.0401-.01-.0601-.02c-.04-.03-.0599-.1-.0499-.16s.0499-.09.0899-.06.0501.09.0401.15z" fill="#123eb7"/><path d="m40.38 18.8098-.76.34-.13.36-.26-.17-.7.35" fill="#000056"/><path d="m40.38 18.8098-.76.34-.13.36-.26-.17-.7.35" stroke="#000056" stroke-linejoin="round" stroke-width=".17"/></svg>